<svg width="609" height="668" viewBox="0 0 609 668" fill="none" xmlns="http://www.w3.org/2000/svg">
<g clip-path="url(#clip0_5_73)">
<path d="M110.461 314.732C91.6131 326.982 73.9586 343.385 57.4218 363.617V394.551C65.4913 391.783 96.2919 380.306 108.453 362.156C122.508 341.179 125.009 309.337 113.302 301.365C110.253 299.293 106.549 299.035 102.486 300.172C89.6715 309.462 77.4156 320.728 65.7092 333.856C61.5607 340.282 58.9939 348.464 57.4218 356.733V357.124C72.5664 335.871 90.3724 322.084 110.461 314.732Z" fill="#6C63FF"/>
<path d="M111.408 124.731C92.5602 136.981 74.9057 153.384 58.3689 173.616V180.681C59.9505 180.137 62.3942 179.268 65.406 178.075C78.931 161.91 94.3503 151.026 111.408 144.781C99.4743 152.534 88.014 161.958 77.0178 172.966C88.6485 167.324 102.249 158.96 109.4 148.285C110.158 147.159 110.878 146.023 111.56 144.877C123.588 124.75 124.384 102.676 113.302 95.1329C101.596 87.1604 81.0715 98.4555 67.0162 119.422C58.8899 131.558 56.6072 150.386 56.1432 164.087C56.8913 165.08 57.6301 166.092 58.3689 167.123C73.5135 145.87 91.3195 132.083 111.408 124.731Z" fill="#6C63FF"/>
<path d="M4.11742 237.591V237.601C5.46238 241.353 7.14818 245.143 9.1562 248.877C12.1396 254.433 16.7238 259.589 21.914 264.201C27.4736 269.146 33.7436 273.462 39.5117 276.966C47.5623 281.864 54.6373 285.187 57.4218 286.447V283.44C41.4248 264.248 24.4144 248.609 6.2769 236.827C25.5416 243.874 42.6939 256.859 57.4218 276.651V263.389C41.4248 244.198 24.4144 228.559 6.2769 216.777C25.5416 223.823 42.6939 236.808 57.4218 256.601V243.339C41.6333 224.406 24.869 208.929 6.99673 197.204C-1.37597 203.992 -2.10516 220.367 4.11742 237.591Z" fill="#6C63FF"/>
<path d="M472.912 371.628C397.753 371.628 336.825 310.208 336.825 234.441C336.825 158.675 397.753 97.2545 472.912 97.2545C548.071 97.2545 609 158.675 609 234.441C609 310.208 548.071 371.628 472.912 371.628Z" fill="#D9488B"/>
<path d="M46.5334 454.39C35.0873 464.11 30.7843 477.942 36.9218 485.284C43.0593 492.627 57.3111 490.698 68.76 480.973C73.3862 477.151 77.0373 472.268 79.4079 466.733L127.39 424.932L107.451 402.651L62.2661 446.225C56.4504 447.641 51.0555 450.441 46.5334 454.39Z" fill="#FCB4B4"/>
<path d="M85.278 423.462L143.934 347.533L199.491 245.033L200.932 387.191L117.655 456.141L85.278 423.462Z" fill="#2F2E41"/>
<path d="M340.436 214.466L326.999 152.877L282.086 155.055L270.557 199.734L340.436 214.466Z" fill="#FCB4B4"/>
<path opacity="0.1" d="M340.436 214.466L326.999 152.877L282.086 155.055L270.557 199.734L340.436 214.466Z" fill="black"/>
<path d="M305.654 169.403C277.884 169.403 255.373 146.709 255.373 118.715C255.373 90.7211 277.884 68.0274 305.654 68.0274C333.424 68.0274 355.936 90.7211 355.936 118.715C355.936 146.709 333.424 169.403 305.654 169.403Z" fill="#FCB4B4"/>
<path d="M328.145 138.29C328.145 138.29 333.218 138.24 343.769 136.262C354.32 134.284 336.001 159.138 336.001 159.138C385.653 138.238 369.764 85.2254 369.764 85.2254C420.156 75.5106 399.046 30.3519 399.046 30.3519C399.046 30.3519 382.435 -1.96214 331.373 0.0941333C280.31 2.15041 304.433 52.9193 304.433 52.9193C271.164 52.9828 267.421 83.2077 267.421 83.2077C267.421 83.2077 279.414 84.717 301.21 90.2934C323.005 95.8697 328.145 138.29 328.145 138.29Z" fill="#FFC580"/>
<path d="M330.139 195.069L332.41 190.611C332.41 190.611 372.815 195.332 379.445 201.564C386.075 207.797 401.229 235.485 401.229 235.485L368.08 264.129L330.139 195.069Z" fill="#FFB6B6"/>
<path d="M279.997 193.986C279.997 193.986 249.689 185.837 232.64 203.023C215.592 220.209 195.702 251.717 195.702 251.717L196.65 276.541L244.006 253.528L279.997 193.986Z" fill="#FFB6B6"/>
<path d="M272.271 190.611C272.271 190.611 232.64 176.289 207.068 206.842C181.496 237.395 173.919 333.828 173.919 333.828C173.919 333.828 116.144 512.371 130.351 514.281C144.558 516.19 231.257 521.468 231.257 521.468L261.054 327.144L274.314 190.611L272.271 190.611Z" fill="#2F2E41"/>
<path d="M363.344 362.471L372.815 396.843L244.006 406.391C244.006 406.391 248.742 377.657 244.006 367.2L363.344 362.471Z" fill="#FCB4B4"/>
<path d="M290.415 585.889L284.733 668L213.206 666.09L215.592 583.025L290.415 585.889Z" fill="#FCB4B4"/>
<path d="M402.01 577.767L423.013 667.045L348.135 666.535L329.057 593.56L402.01 577.767Z" fill="#FCB4B4"/>
<path d="M274.314 190.611H332.41L379.445 253.626L369.027 382.521C369.027 382.521 345.349 375.838 312.199 375.838H241.165C241.165 375.838 251.583 342.421 238.323 329.054C225.063 315.687 234.535 253.626 234.535 253.626L274.314 190.611Z" fill="#F4E9F0"/>
<path d="M377.551 386.34L430.59 580.16C430.59 580.16 352.49 611.796 305.351 602.662C258.213 593.527 193.808 590.663 193.808 590.663L239.27 393.979L377.551 386.34Z" fill="#2F2E41"/>
<path d="M254.902 457.254C243.455 466.974 239.153 480.806 245.29 488.149C251.427 495.491 265.679 493.562 277.128 483.837C281.754 480.015 285.406 475.133 287.776 469.597L335.758 427.796L315.819 405.516L270.634 449.09C264.819 450.506 259.424 453.305 254.902 457.254Z" fill="#FCB4B4"/>
<path d="M284.175 423.462L342.831 347.533L398.388 245.033L399.828 387.191L316.552 456.141L284.175 423.462Z" fill="#2F2E41"/>
<path d="M328.45 190.611C328.45 190.611 368.08 176.289 393.652 206.842C419.225 237.395 426.802 333.828 426.802 333.828C426.802 333.828 484.576 512.371 470.37 514.281C456.163 516.19 369.463 521.468 369.463 521.468L339.666 327.144L326.406 190.611L328.45 190.611Z" fill="#2F2E41"/>
<path d="M56.4746 154.329H58.3688V486.592H56.4746V154.329Z" fill="#3F3D56"/>
<path d="M583.078 495.185C564.23 507.435 546.575 523.838 530.039 544.07V575.005C538.108 572.236 568.909 560.759 581.07 542.609C595.125 521.633 597.626 489.791 585.919 481.818C582.869 479.746 579.166 479.489 575.103 480.625C562.288 489.915 550.032 501.181 538.326 514.309C534.178 520.735 531.611 528.917 530.039 537.186V537.577C545.183 516.324 562.989 502.537 583.078 495.185Z" fill="#6C63FF"/>
<path d="M584.025 305.184C565.177 317.434 547.523 333.837 530.986 354.069V361.134C532.567 360.59 535.011 359.721 538.023 358.528C551.548 342.363 566.967 331.479 584.025 325.234C572.091 332.987 560.631 342.411 549.635 353.42C561.265 347.777 574.866 339.413 582.017 328.739C582.775 327.612 583.494 326.476 584.176 325.33C596.205 305.203 597.001 283.129 585.919 275.586C574.213 267.614 553.688 278.909 539.633 299.876C531.507 312.011 529.224 330.839 528.76 344.54C529.508 345.533 530.247 346.545 530.986 347.576C546.13 326.323 563.936 312.536 584.025 305.184Z" fill="#6C63FF"/>
<path d="M476.734 418.044V418.054C478.079 421.806 479.765 425.596 481.773 429.33C484.756 434.887 489.341 440.042 494.531 444.654C500.09 449.6 506.36 453.915 512.128 457.419C520.179 462.317 527.254 465.64 530.039 466.9V463.893C514.042 444.702 497.031 429.062 478.894 417.28C498.158 424.327 515.311 437.312 530.039 457.104V443.842C514.042 424.651 497.031 409.012 478.894 397.23C498.158 404.276 515.311 417.261 530.039 437.054V423.792C514.25 404.859 497.486 389.382 479.613 377.657C471.241 384.446 470.512 400.82 476.734 418.044Z" fill="#6C63FF"/>
<path d="M529.091 334.782H530.986V667.045H529.091V334.782Z" fill="#3F3D56"/>
</g>
<defs>
<clipPath id="clip0_5_73">
<rect width="609" height="668" fill="white" transform="matrix(-1 0 0 1 609 0)"/>
</clipPath>
</defs>
</svg>
