<svg id="Camada_1" data-name="Camada 1" xmlns="http://www.w3.org/2000/svg" viewBox="0 0 1080 1080"><defs><style>.cls-1,.cls-2{fill:#1e1e1c;}.cls-2,.cls-3{stroke:#1e1e1c;stroke-miterlimit:10;stroke-width:0.75px;}.cls-3{fill:#e50c7e;}</style></defs><path class="cls-1" d="M439.5,594.92V584.18h-2.68v-.81h1.67a43.35,43.35,0,0,0,4.7-.2v3h.08q1.47-3,5.35-3c2.79,0,4.34,1.07,4.62,3.22h.08a5.69,5.69,0,0,1,5.48-3.22,5.34,5.34,0,0,1,2.87.73,3,3,0,0,1,1.47,1.63,12.11,12.11,0,0,1,.27,3.06v6.35h2.64v.8h-8.8v-.8h2.49v-7.78a8.65,8.65,0,0,0-.26-2.53c-.17-.46-.63-.73-1.38-.73a4.8,4.8,0,0,0-3.15,1.47c-1.08,1-1.63,2.79-1.63,5.45v4.08h2.45v.8h-8.63v-.8h2.47v-6.06a15,15,0,0,0-.32-4.22c-.2-.45-.73-.68-1.47-.68a3.87,3.87,0,0,0-2.81,1.18,5.1,5.1,0,0,0-1.5,2.29,15.68,15.68,0,0,0-.3,3.55v4h2.45v.8h-8.8v-.8Z"/><path class="cls-1" d="M480.93,588.66v-1.59a5.41,5.41,0,0,0-.39-2.58c-.25-.41-1-.61-2.09-.61-2.05,0-3.07.32-3.07,1a1,1,0,0,0,.25.62,1.34,1.34,0,0,1,.26.8,1.09,1.09,0,0,1-.51,1,2.1,2.1,0,0,1-1.16.35,1.8,1.8,0,0,1-1.29-.44,1.36,1.36,0,0,1-.46-1c0-.83.6-1.53,1.78-2.11a11.58,11.58,0,0,1,4.94-.85,10.2,10.2,0,0,1,3.72.49,2.38,2.38,0,0,1,1.46,1.21,5.8,5.8,0,0,1,.28,2v5.79a3.53,3.53,0,0,0,.21,1.58.75.75,0,0,0,.68.32,1.77,1.77,0,0,0,1.32-.77h.48c-.33,1.53-1.4,2.29-3.22,2.29A2.88,2.88,0,0,1,481,593.6a6.75,6.75,0,0,1-5.2,2.51,5.07,5.07,0,0,1-3.14-.88,2.65,2.65,0,0,1-1.18-2.2Q471.42,589,480.93,588.66Zm0,2.42v-1.69c-2.33.07-3.88.36-4.62.87a2.47,2.47,0,0,0-1.12,2.2,2,2,0,0,0,.67,1.64,2.38,2.38,0,0,0,1.55.58,3.89,3.89,0,0,0,3.22-1.87A4.11,4.11,0,0,0,480.93,591.08Z"/><path class="cls-1" d="M494.78,594.92V584.18h-2.7v-.81h1.73a42.28,42.28,0,0,0,4.64-.23v3.06h.09a6.1,6.1,0,0,1,5.52-3.22,4.8,4.8,0,0,1,2.73.73,3.7,3.7,0,0,1,1.47,1.66,8.57,8.57,0,0,1,.39,2.93v6.6h2.93v.8h-9.16v-.8h2.52v-7.83a7.78,7.78,0,0,0-.28-2.5c-.18-.47-.66-.69-1.46-.69a4.44,4.44,0,0,0-3.31,1.56,5.82,5.82,0,0,0-1.46,4.2v5.28h2.48v.8h-8.83v-.8Z"/><path class="cls-1" d="M521.8,583.14v11.78h2.48v.8h-8.79v-.8h2.64V584.18h-2.65v-.81h2.65A26.5,26.5,0,0,0,521.8,583.14Zm-3.81-6a1.49,1.49,0,0,1,.61-1.2,2.39,2.39,0,0,1,2.93,0,1.53,1.53,0,0,1,.32,2.12,1.57,1.57,0,0,1-.32.31,2.39,2.39,0,0,1-2.93,0,1.52,1.52,0,0,1-.61-1.21Z"/><path class="cls-1" d="M542.11,591.45h.82a5.76,5.76,0,0,1-2.24,3.47,6.62,6.62,0,0,1-4,1.19,7.87,7.87,0,0,1-5.42-2,5.81,5.81,0,0,1,.07-9.16,8.3,8.3,0,0,1,5.65-2,7,7,0,0,1,3.93,1,2.81,2.81,0,0,1,1.51,2.28,1.51,1.51,0,0,1-.52,1.13,1.81,1.81,0,0,1-1.35.49,2.13,2.13,0,0,1-1.36-.42,1.36,1.36,0,0,1-.54-1.12,1.42,1.42,0,0,1,.47-1c.3-.31.46-.53.46-.64,0-.29-.24-.54-.73-.74a4.59,4.59,0,0,0-1.83-.32,4.19,4.19,0,0,0-2.93.88c-.65.59-1,1.83-1,3.72a32.87,32.87,0,0,0,.18,4.21,3,3,0,0,0,3.08,3l.43,0Q540.61,595.44,542.11,591.45Z"/><path class="cls-1" d="M563.87,583.37v11.55h2.56v.8h-2.56a21.27,21.27,0,0,0-3.74.19V593h-.07a5.79,5.79,0,0,1-5.37,2.94,5.7,5.7,0,0,1-3.38-.92c-.86-.61-1.29-1.91-1.29-3.87v-6.94h-2.75v-.81h6.46v8.3a8.7,8.7,0,0,0,.27,2.69c.19.5.69.73,1.47.73a4.41,4.41,0,0,0,3.22-1.54,6.57,6.57,0,0,0,1.46-4.67v-4.72h-3v-.8Z"/><path class="cls-1" d="M573.73,594.92V584.18h-3.07v-.81h3.11a23.57,23.57,0,0,0,3.66-.2v2.93h.08c.89-2,2.2-2.93,3.93-2.93a2.77,2.77,0,0,1,1.82.57,1.75,1.75,0,0,1,.7,1.39,1.48,1.48,0,0,1-.56,1.22,2.23,2.23,0,0,1-1.47.47c-1.09,0-1.63-.46-1.63-1.36l.07-.67c0-.25-.13-.36-.39-.36-.42,0-1,.46-1.59,1.4a7.52,7.52,0,0,0-1,4.26v4.83h3.15v.8h-9.9v-.8Z"/><path class="cls-1" d="M602.24,588.61h-9.6q-.14,4.65.62,5.72a3.09,3.09,0,0,0,2.72,1.08,5.37,5.37,0,0,0,5.44-3.87h.82a5.7,5.7,0,0,1-2.37,3.46,7.07,7.07,0,0,1-3.89,1.11,8,8,0,0,1-5.31-1.87,6,6,0,0,1-.94-8.48,6.24,6.24,0,0,1,.89-.89,7.64,7.64,0,0,1,5.14-1.89,7.11,7.11,0,0,1,4.45,1.47A5.33,5.33,0,0,1,602.24,588.61Zm-9.6-.74h5.52a13.6,13.6,0,0,0,.15-1.69c0-1.68-.92-2.52-2.75-2.52a3.46,3.46,0,0,0-2.14.61,1.93,1.93,0,0,0-.78,1.64Z"/><path class="cls-1" d="M633.23,588.61h-9.6q-.14,4.65.62,5.72a3.09,3.09,0,0,0,2.72,1.08,5.37,5.37,0,0,0,5.44-3.87h.82a5.65,5.65,0,0,1-2.36,3.46,7.1,7.1,0,0,1-3.9,1.11,8.06,8.06,0,0,1-5.31-1.87,6,6,0,0,1-.93-8.48,5.76,5.76,0,0,1,.89-.89,7.63,7.63,0,0,1,5.13-1.89,7.07,7.07,0,0,1,4.45,1.47A5.3,5.3,0,0,1,633.23,588.61Zm-9.59-.74h5.52a13.59,13.59,0,0,0,.14-1.69c0-1.68-.91-2.52-2.75-2.52a3.48,3.48,0,0,0-2.14.61,2,2,0,0,0-.78,1.64Z"/><path class="cls-1" d="M656.44,593.66v9.4h3.07V604H650.2v-.89h2.56V584.18H650v-.81h2.14a42,42,0,0,0,4.34-.2v2.48h.08a5.23,5.23,0,0,1,4.85-2.67,6.85,6.85,0,0,1,4.73,1.85,5.7,5.7,0,0,1,2,4.4,6.16,6.16,0,0,1-2.2,4.71,7.32,7.32,0,0,1-5,2,5.09,5.09,0,0,1-4.39-2.24Zm7.47-4.08a22.58,22.58,0,0,0-.2-3.94,2.18,2.18,0,0,0-.91-1.46,2.8,2.8,0,0,0-1.58-.48,4.27,4.27,0,0,0-3,1,5.25,5.25,0,0,0-1.47,2,9.38,9.38,0,0,0-.34,2.89,11.15,11.15,0,0,0,.32,3,3.42,3.42,0,0,0,1.55,1.82,5.1,5.1,0,0,0,2.72.73,2.39,2.39,0,0,0,2.2-1.09c.47-.71.69-2.23.69-4.53Z"/><path class="cls-1" d="M687.71,588.61h-9.59q-.14,4.65.63,5.72a3,3,0,0,0,2.7,1.08,5.37,5.37,0,0,0,5.45-3.87h.81a5.66,5.66,0,0,1-2.37,3.46,7,7,0,0,1-3.89,1.11,8,8,0,0,1-5.31-1.87,6,6,0,0,1-.93-8.48,5.35,5.35,0,0,1,.89-.89,7.68,7.68,0,0,1,5.13-1.89,7.07,7.07,0,0,1,4.45,1.47A5.3,5.3,0,0,1,687.71,588.61Zm-9.59-.74h5.52a15.83,15.83,0,0,0,.15-1.69c0-1.68-.92-2.52-2.75-2.52a3.51,3.51,0,0,0-2.15.61,2,2,0,0,0-.77,1.64Z"/><path class="cls-1" d="M708.55,574.42V595h2.56v.8H709c-1.34,0-2.76.06-4.25.19v-2.58h-.07a5.12,5.12,0,0,1-4.85,2.78,6.62,6.62,0,0,1-4.72-2,6.08,6.08,0,0,1-2-4.47,6.23,6.23,0,0,1,2.15-4.68,7.22,7.22,0,0,1,5.08-2,4.81,4.81,0,0,1,4.39,2.2h.08v-9.75H701.3v-.81h3.46A32,32,0,0,0,708.55,574.42Zm-8.15,9.29c-1.38,0-2.24.42-2.59,1.28a16.73,16.73,0,0,0-.52,5.19q0,3.38.66,4.26a2.5,2.5,0,0,0,2.14.87,4.57,4.57,0,0,0,2.81-.89,4.18,4.18,0,0,0,1.6-2,13,13,0,0,0,.37-3.72,5.1,5.1,0,0,0-1.19-3.71A4.35,4.35,0,0,0,700.4,583.71Z"/><path class="cls-1" d="M721.87,583.14v11.78h2.48v.8h-8.79v-.8h2.65V584.18h-2.65v-.81h2.69A25.79,25.79,0,0,0,721.87,583.14Zm-3.81-6a1.47,1.47,0,0,1,.61-1.19,2.36,2.36,0,0,1,2.93,0,1.5,1.5,0,0,1,.32,2.11,1.57,1.57,0,0,1-.32.31,2.39,2.39,0,0,1-2.93,0A1.49,1.49,0,0,1,718.06,577.11Z"/><path class="cls-1" d="M742.18,591.45H743a5.88,5.88,0,0,1-2.24,3.47,6.71,6.71,0,0,1-4,1.19,7.9,7.9,0,0,1-5.43-2,5.81,5.81,0,0,1,.07-9.16,8.31,8.31,0,0,1,5.66-2,7,7,0,0,1,3.93,1,2.83,2.83,0,0,1,1.51,2.28,1.54,1.54,0,0,1-.52,1.13,1.85,1.85,0,0,1-1.36.49,2.13,2.13,0,0,1-1.36-.42,1.35,1.35,0,0,1-.53-1.12,1.41,1.41,0,0,1,.46-1c.31-.31.47-.53.47-.64,0-.29-.24-.53-.73-.74a4.56,4.56,0,0,0-1.83-.32,4.19,4.19,0,0,0-2.93.88q-1,.88-1,3.72a32.87,32.87,0,0,0,.18,4.21,3.62,3.62,0,0,0,1,2.13,3.53,3.53,0,0,0,2.57.78Q740.67,595.43,742.18,591.45Z"/><path class="cls-1" d="M763.94,583.37v11.55h2.55v.8h-2.55a21.27,21.27,0,0,0-3.74.19V593h-.08a6.51,6.51,0,0,1-8.75,2c-.85-.62-1.28-1.91-1.28-3.87v-7h-2.75v-.8h6.45v8.3a8.74,8.74,0,0,0,.28,2.69c.2.49.68.73,1.47.73a4.42,4.42,0,0,0,3.23-1.55,6.54,6.54,0,0,0,1.46-4.66v-4.72h-3v-.81Z"/><path class="cls-1" d="M773.8,594.92V584.18h-3.08v-.81h3.11a23.7,23.7,0,0,0,3.67-.2v2.93h.07c.89-2,2.2-2.93,3.93-2.93a2.79,2.79,0,0,1,1.83.57,1.74,1.74,0,0,1,.69,1.39,1.51,1.51,0,0,1-.55,1.22,2.23,2.23,0,0,1-1.47.47c-1.09,0-1.64-.46-1.64-1.36l.09-.67c0-.25-.14-.36-.41-.36s-.94.46-1.59,1.4a7.6,7.6,0,0,0-1,4.26v4.83h3.11v.8h-9.9v-.8Z"/><path class="cls-1" d="M802.3,588.61h-9.6q-.12,4.65.63,5.72a3.08,3.08,0,0,0,2.72,1.08,5.37,5.37,0,0,0,5.44-3.87h.81a5.7,5.7,0,0,1-2.37,3.46,7,7,0,0,1-3.88,1.11,8.07,8.07,0,0,1-5.32-1.87,6,6,0,0,1-.93-8.48,5.35,5.35,0,0,1,.89-.89,7.66,7.66,0,0,1,5.13-1.89,7.06,7.06,0,0,1,4.44,1.47A5.31,5.31,0,0,1,802.3,588.61Zm-9.6-.74h5.52a13.61,13.61,0,0,0,.16-1.69c0-1.68-.92-2.52-2.75-2.52a3.49,3.49,0,0,0-2.15.61,2,2,0,0,0-.78,1.64Z"/><path class="cls-1" d="M304.84,505.35q-4.54-13.05-7.23-17.43c-1.81-2.94-3.85-4.4-6.16-4.4v-.84h28.83v.87c-4,0-6.18,1.46-6.64,4.4s.74,8.73,3.61,17.4l12,34.77q6.6-19,12-34.87,4.09-11.78,3.45-16.74c-.43-3.31-2.58-5-6.47-5v-.87h18v.87c-2.09,0-4,1.15-5.56,3.45s-3.57,6.66-5.86,13.07l-20,58.18h-1.72Z"/><path class="cls-1" d="M378.58,500.17q11.55,0,17.43,5.29t5.87,16.63v36.16l-12.4-6.8q-5.18,8.87-17,8.86a28.46,28.46,0,0,1-7.83-1.14,31.83,31.83,0,0,1-7.56-3.32,17.33,17.33,0,0,1-5.86-5.78,15,15,0,0,1-2.28-8.15,16.59,16.59,0,0,1,2.26-8.64,17,17,0,0,1,5.87-5.93,28.78,28.78,0,0,1,7.56-3.19,30.81,30.81,0,0,1,7.83-1,42.94,42.94,0,0,1,17,3.38v-4.39q0-20-10.36-20a6.55,6.55,0,0,0-4.05,1.57,14.19,14.19,0,0,0-3.45,4c-1,1.62-1.71,2.94-2.2,3.94s-1,2-1.41,3a5.74,5.74,0,0,1-2.27,2.8,6.19,6.19,0,0,1-3.56,1.08,5.93,5.93,0,0,1-4.32-1.83,6,6,0,0,1-1.83-4.4,7.29,7.29,0,0,1,2.65-5.4,18,18,0,0,1,6.47-3.83,57.73,57.73,0,0,1,7.4-2.1A29.88,29.88,0,0,1,378.58,500.17Zm10.9,49V528.35a26.52,26.52,0,0,0-15-2.56,13,13,0,0,0-8.75,4.85,14.38,14.38,0,0,0-3.34,10.48q.42,8.21,5.44,12.52a13,13,0,0,0,11.4,3.13,14.43,14.43,0,0,0,6.31-2.75,12.26,12.26,0,0,0,3.94-4.83Z"/><path class="cls-1" d="M464.73,535.59q0,5.6.11,9.17c.07,2.37.21,4.45.43,6.21a11.7,11.7,0,0,0,1,3.94,5.07,5.07,0,0,0,1.62,1.88,4.23,4.23,0,0,0,2.33.6v.86H441.52v-.86a9.5,9.5,0,0,0,6.21-1.83c1.48-1.23,2.59-3.4,3.34-6.54a60.38,60.38,0,0,0,1.14-13.43V522.13q0-9.61-3.24-13.77t-7.77-4.16q-7.24,0-14.91,10.69v20.73a60.42,60.42,0,0,0,1.14,13.44q1.14,4.7,3.34,6.53a9.66,9.66,0,0,0,6.32,1.84v.86H408.27v-.9a4.3,4.3,0,0,0,2.85-.86,6.56,6.56,0,0,0,1.68-3.4,32.68,32.68,0,0,0,.81-6.53c.11-2.67.17-6.33.16-11V524.79a114,114,0,0,0-.48-12.8q-.5-3.72-1.47-4.64c-.65-.61-1.83-.91-3.56-.91v-.87l18-3.45v10.36q5.28-7.12,10.36-9.72a25.72,25.72,0,0,1,11.88-2.59q7.67,0,11.93,5.34t4.27,16.62Z"/><path class="cls-1" d="M524.73,545.19l1,.73a31.32,31.32,0,0,1-6,7.56,27,27,0,0,1-7.94,5,25.22,25.22,0,0,1-9.67,1.83,27.31,27.31,0,0,1-20.45-8.79,30.92,30.92,0,0,1,0-42.52,27.36,27.36,0,0,1,20.45-8.8,29.16,29.16,0,0,1,5.19.59,65.73,65.73,0,0,1,6.8,1.73,15.26,15.26,0,0,1,6.2,3.57,7.47,7.47,0,0,1,2.55,5.55q0,4.86-9.29,9.07t-28.15,9.07c.14,1.16.33,2.31.54,3.46q2,10.89,8.26,16.73a20.55,20.55,0,0,0,14.3,5.83,17.49,17.49,0,0,0,8.75-2.64A20.88,20.88,0,0,0,524.73,545.19Zm-27.64-42.75q-6,1-9.39,8.48t-2.49,17.75q26.13-7.87,26.13-16.52,0-4.2-4.48-7.44a12.25,12.25,0,0,0-9.74-2.27Z"/><path class="cls-1" d="M604.87,519.82a25,25,0,0,1,16.86,5.94q6.93,5.94,7,14.25a20.3,20.3,0,0,1-5.46,14.52q-5.46,5.78-15.06,5.78a27.22,27.22,0,0,1-6.6-.74,25.33,25.33,0,0,1-5.18-1.83,14.81,14.81,0,0,1-4-3,27.3,27.3,0,0,1-5.72-8.15c-.9-1.83-1.6-3.42-2.11-4.75l-2-5.23c-.83-2.16-1.49-3.89-2-5.19q-2.49-5.92-4.59-10.14a66.25,66.25,0,0,0-4.8-8.07,29.12,29.12,0,0,0-5.62-6.21,22.23,22.23,0,0,0-6.6-3.61,24.32,24.32,0,0,0-8.2-1.3,17.93,17.93,0,0,0-9.82,2.59c-2.75,1.73-4.11,3.81-4.11,6.26q0,4,4.4,6.48t13.66,2.48a26.85,26.85,0,0,1,12,2.7,22.54,22.54,0,0,1,8.75,7.33,17.41,17.41,0,0,1,3.24,10.15q0,8.43-7,14.36a25.4,25.4,0,0,1-16.95,5.94h0a152.34,152.34,0,0,1-23.65-2.05V536.45h.87a19.39,19.39,0,0,0,3.83,11.93,23.21,23.21,0,0,0,9.67,7.61,31.79,31.79,0,0,0,12.63,2.48,15.68,15.68,0,0,0,10.42-3.66A11.17,11.17,0,0,0,573,546a10.57,10.57,0,0,0-2-6.26,13.46,13.46,0,0,0-6.32-4.48,29.51,29.51,0,0,0-10.58-1.67,27.23,27.23,0,0,1-16.3-4.86q-6.77-4.86-6.8-11.73a15.21,15.21,0,0,1,5.44-12q5.46-4.76,14.74-4.75a22.61,22.61,0,0,1,6.64,1,26.56,26.56,0,0,1,5.67,2.43,22.75,22.75,0,0,1,4.86,3.94,52.29,52.29,0,0,1,4.1,4.81,42.89,42.89,0,0,1,3.51,5.77q1.77,3.46,3,6.1c.82,1.77,1.75,3.91,2.75,6.43q.74,1.71,2,4.64c.8,2,1.4,3.42,1.78,4.4s1,2.33,1.73,4,1.38,2.86,1.88,3.72,1.16,1.91,2,3.13a14.24,14.24,0,0,0,2.38,2.81c.76.64,1.67,1.36,2.75,2.15a11.12,11.12,0,0,0,3.35,1.73,30.38,30.38,0,0,0,3.88.92,28,28,0,0,0,4.75.38,15.46,15.46,0,0,0,10.37-3.66,11.28,11.28,0,0,0,4.32-8.86,10.76,10.76,0,0,0-1.94-6.26,13.1,13.1,0,0,0-6.26-4.48,29.38,29.38,0,0,0-10.59-1.67,29.9,29.9,0,0,1-9-1.35,25.55,25.55,0,0,1-7.36-3.55,17.58,17.58,0,0,1-4.91-5.29,12.34,12.34,0,0,1,0-13,18.14,18.14,0,0,1,4.91-5.34,23.89,23.89,0,0,1,7.4-3.56,30.83,30.83,0,0,1,9-1.3c1.37,0,2.61,0,3.73.06s2.2.08,3.29.16l2.65.16c.68,0,1.61.15,2.8.32l2.53.38,2.94.44,3.07.43v21.8h-.86q0-10.26-6.6-16.08T600.79,502a18.32,18.32,0,0,0-9.87,2.59c-2.78,1.73-4.16,3.82-4.16,6.26q0,4,4.4,6.48T604.87,519.82Z"/><path class="cls-1" d="M663.29,500.17q11.55,0,17.44,5.29t5.87,16.63v36.16l-12.42-6.8q-5.19,8.87-16.95,8.86a28.41,28.41,0,0,1-7.83-1.14,31.48,31.48,0,0,1-7.56-3.32,17.33,17.33,0,0,1-5.86-5.78,15,15,0,0,1-2.28-8.15,16.42,16.42,0,0,1,2.28-8.64,16.89,16.89,0,0,1,5.86-5.93,28.78,28.78,0,0,1,7.56-3.19,30.87,30.87,0,0,1,7.83-1,43.07,43.07,0,0,1,16.95,3.38v-4.39q0-20-10.37-20a6.52,6.52,0,0,0-4,1.57,14.42,14.42,0,0,0-3.47,4c-1,1.62-1.7,2.93-2.19,3.94s-1,2-1.41,3a5.74,5.74,0,0,1-2.27,2.8,6.19,6.19,0,0,1-3.56,1.08,5.93,5.93,0,0,1-4.32-1.83,6,6,0,0,1-1.83-4.4,7.31,7.31,0,0,1,2.64-5.4,18.13,18.13,0,0,1,6.48-3.83,57.73,57.73,0,0,1,7.4-2.1A29.38,29.38,0,0,1,663.29,500.17Zm10.91,49V528.35a26.63,26.63,0,0,0-15-2.56,13,13,0,0,0-8.74,4.85,14.44,14.44,0,0,0-3.36,10.48q.45,8.21,5.46,12.52a13,13,0,0,0,11.39,3.13,14.38,14.38,0,0,0,6.31-2.75,12.37,12.37,0,0,0,3.95-4.83Z"/><path class="cls-1" d="M748.13,558.25H730v-.86a4.34,4.34,0,0,0,2.86-.86,6.64,6.64,0,0,0,1.67-3.4,32.68,32.68,0,0,0,.81-6.53c.11-2.67.16-6.33.16-11V505.35q0-9.28-.43-13.71a15.69,15.69,0,0,0-1.56-6.26,3.84,3.84,0,0,0-3.51-1.83v-.87h18l39.41,57.44V505.35a61.14,61.14,0,0,0-1.13-13.44c-.75-3.12-1.89-5.3-3.4-6.53a9.7,9.7,0,0,0-6.26-1.83v-.87h18.14v.87a4,4,0,0,0-3.57,1.83q-1.19,1.83-1.62,6.26t-.43,13.71v52.9h-1.73l-50.1-73v50.32A61.1,61.1,0,0,0,738.47,549c.76,3.14,1.88,5.31,3.35,6.54a9.64,9.64,0,0,0,6.32,1.83Z"/><path class="cls-1" d="M827.05,500.17q11.55,0,17.43,5.29t5.87,16.63v36.16l-12.4-6.8q-5.18,8.87-17,8.86a28.34,28.34,0,0,1-7.82-1.14,31.66,31.66,0,0,1-7.56-3.32,17.33,17.33,0,0,1-5.86-5.78,15,15,0,0,1-2.31-8.15,16.51,16.51,0,0,1,2.27-8.64,17,17,0,0,1,5.86-5.93,28.92,28.92,0,0,1,7.56-3.19,30.93,30.93,0,0,1,7.83-1,42.86,42.86,0,0,1,17,3.38v-4.39q0-20-10.36-20a6.55,6.55,0,0,0-4.05,1.57,14.19,14.19,0,0,0-3.45,4q-1.47,2.43-2.2,3.94c-.49,1-1,2-1.4,3a5.76,5.76,0,0,1-2.28,2.8,6.26,6.26,0,0,1-3.55,1.08,5.93,5.93,0,0,1-4.33-1.83,6,6,0,0,1-1.83-4.4,7.29,7.29,0,0,1,2.65-5.4,18.23,18.23,0,0,1,6.43-3.87A59.4,59.4,0,0,1,821,501,29.61,29.61,0,0,1,827.05,500.17Zm10.9,49V528.35a26.52,26.52,0,0,0-15-2.56,13.11,13.11,0,0,0-8.75,4.85,14.42,14.42,0,0,0-3.34,10.48q.42,8.21,5.45,12.52a13,13,0,0,0,11.39,3.13A14.51,14.51,0,0,0,834,554,12.32,12.32,0,0,0,838,549.19Z"/><path class="cls-1" d="M874.77,535.59q0,9.27.43,13.71a15.83,15.83,0,0,0,1.56,6.26,3.85,3.85,0,0,0,3.52,1.83v.86H856.73v-.86a3.85,3.85,0,0,0,3.52-1.83,16.24,16.24,0,0,0,1.57-6.26c.29-3,.42-7.53.42-13.71v-10.8q0-5.5-.16-8.75c-.1-2.16-.24-4-.37-5.4a4.88,4.88,0,0,0-1-3,3.74,3.74,0,0,0-1.57-1,9.51,9.51,0,0,0-2.38-.21v-.87l18-3.45Zm27.53,0c0,4.67.07,8.34.21,11a34.18,34.18,0,0,0,.87,6.53,6.64,6.64,0,0,0,1.67,3.41,4.32,4.32,0,0,0,2.86.85v.87H884.27v-.85h.43a4,4,0,0,0,3.3-2.11,17.94,17.94,0,0,0,1.46-6.26q.45-4.37.43-13.43V505.35q0-13.38-.85-16.24t-4.75-2.2a9,9,0,0,0-4.4,2.26c-1.37,1.23-1.62.42-1.19-.05a7.35,7.35,0,0,1,1.13-1l1.24-.8a6.63,6.63,0,0,1,1.57-.74c.54-.18,1.1-.34,1.68-.49l18-3.38Z"/><path class="cls-1" d="M937.06,519.82a25.33,25.33,0,0,1,17,5.94q7,5.94,7,14.3t-7,14.31a25.33,25.33,0,0,1-17,5.94h0a152.46,152.46,0,0,1-23.65-2.06v-21.8h.87a19.39,19.39,0,0,0,3.83,11.93,23.21,23.21,0,0,0,9.67,7.61,31.86,31.86,0,0,0,12.63,2.48,15.64,15.64,0,0,0,10.42-3.66,11.18,11.18,0,0,0,4.4-8.86,10.64,10.64,0,0,0-4.81-8.91q-4.8-3.51-14.09-3.5a27,27,0,0,1-16.3-4.91q-6.76-4.92-6.8-11.73a13.33,13.33,0,0,1,3.08-8.43,20.49,20.49,0,0,1,8.42-6.1,29.94,29.94,0,0,1,11.6-2.19c1.37,0,2.61,0,3.73.05s2.2.09,3.35.17l2.64.16a21.48,21.48,0,0,1,2.75.32l2.54.38,2.93.43c1.47.22,2.5.36,3.08.44v21.8h-.87q0-10.26-6.59-16.09T933,502a20.18,20.18,0,0,0-7,1.19,12.11,12.11,0,0,0-5.07,3.24,6.47,6.47,0,0,0-1.84,4.4q0,4,4.39,6.48T937.06,519.82Z"/><path class="cls-2" d="M859.66,484.34h0a3.9,3.9,0,0,0-2.87,4.36s1.13,4.4,9.67,9.23h0l-2.2-10.55A3.91,3.91,0,0,0,859.66,484.34Z"/><path class="cls-2" d="M871.88,485.59a3.89,3.89,0,0,0-4.35-2.87h0a3.9,3.9,0,0,0-3,4.6h0l2.2,10.54h0C872.57,490,871.88,485.59,871.88,485.59Z"/><path class="cls-3" d="M221.1,504.58c-26.93,41.66-58.49,72.07-66.92,70.34C146,573.23,142,564.26,142,538.77s13.63-64.42,12.21-56.18C127.44,637.55,229.22,492,221.1,504.58Z"/><path class="cls-2" d="M164.72,552.73c26.39-42,57.59-72.82,66-71.19,8.21,1.58,12.35,10.49,12.67,36s-12.8,64.57-11.48,56.32C256.67,418.58,156.77,565.39,164.72,552.73Z"/><path class="cls-2" d="M152.22,474.13h0a1.31,1.31,0,0,0-1,1.47s.38,1.47,3.26,3.1h0l-.73-3.55a1.33,1.33,0,0,0-1.55-1Z"/><path class="cls-2" d="M156.33,474.54a1.31,1.31,0,0,0-1.47-1h0a1.31,1.31,0,0,0-1,1.54h0l.74,3.55h0C156.57,476,156.33,474.54,156.33,474.54Z"/></svg>