<svg id="Camada_1" data-name="Camada 1" xmlns="http://www.w3.org/2000/svg" viewBox="0 0 913.31 400.05"><defs><style>.cls-1,.cls-3{fill:#1d1d1b;}.cls-2{fill:#e6007e;}.cls-2,.cls-3{stroke:#1d1d1b;stroke-miterlimit:10;stroke-width:0.75px;}</style></defs><path class="cls-1" d="M275.74,715.29V700.64h-3.65v-1.1h2.28a56.69,56.69,0,0,0,6.41-.28v4.14h.11q2-4.14,7.29-4.14c3.81,0,5.92,1.47,6.31,4.4h.11a7.76,7.76,0,0,1,7.47-4.4,7.47,7.47,0,0,1,3.92,1,4.06,4.06,0,0,1,2,2.23,16.32,16.32,0,0,1,.37,4.17v8.66h3.6v1.09h-12v-1.09h3.39V704.71a11.5,11.5,0,0,0-.35-3.45c-.23-.63-.86-1-1.88-1a6.6,6.6,0,0,0-4.3,2q-2.22,2-2.22,7.44v5.57h3.34v1.09H286.16v-1.09h3.37V707c0-3.23-.15-5.15-.43-5.76s-1-.93-2-.93a5.31,5.31,0,0,0-3.84,1.61,7.11,7.11,0,0,0-2.05,3.13,21.31,21.31,0,0,0-.4,4.84v5.4h3.34v1.09h-12v-1.09Z" transform="translate(-73.8 -327.56)"/><path class="cls-1" d="M332.26,706.76v-2.18a7.61,7.61,0,0,0-.53-3.52c-.35-.55-1.31-.83-2.86-.83-2.79,0-4.19.44-4.19,1.33a1.45,1.45,0,0,0,.35.84,1.78,1.78,0,0,1,.35,1.09,1.48,1.48,0,0,1-.7,1.33,2.77,2.77,0,0,1-1.58.47,2.45,2.45,0,0,1-1.75-.59,1.86,1.86,0,0,1-.63-1.39c0-1.14.81-2.1,2.42-2.88a15.81,15.81,0,0,1,6.74-1.17,14.25,14.25,0,0,1,5.07.67,3.26,3.26,0,0,1,2,1.65,8.1,8.1,0,0,1,.38,2.78v7.89a4.81,4.81,0,0,0,.29,2.16,1,1,0,0,0,.92.43,2.42,2.42,0,0,0,1.81-1.05H341q-.68,3.13-4.39,3.13a3.93,3.93,0,0,1-4.3-3.43,9.19,9.19,0,0,1-7.09,3.43,6.93,6.93,0,0,1-4.29-1.21,3.61,3.61,0,0,1-1.6-3Q319.28,707.28,332.26,706.76Zm0,3.3v-2.31q-4.78.15-6.31,1.19a3.4,3.4,0,0,0-1.53,3,2.8,2.8,0,0,0,.92,2.23,3.13,3.13,0,0,0,2.11.79,4.72,4.72,0,0,0,2.76-.85,4.8,4.8,0,0,0,1.64-1.7A5.62,5.62,0,0,0,332.26,710.06Z" transform="translate(-73.8 -327.56)"/><path class="cls-1" d="M351.15,715.29V700.64h-3.68v-1.1h2.36a55.25,55.25,0,0,0,6.33-.32v4.18h.11A8.34,8.34,0,0,1,363.8,699a6.66,6.66,0,0,1,3.73,1,5,5,0,0,1,2,2.27,11.56,11.56,0,0,1,.53,4v9h4v1.09H361.57v-1.09H365V704.58a10.54,10.54,0,0,0-.37-3.41c-.25-.63-.9-.94-2-.94a6.08,6.08,0,0,0-4.51,2.13,8,8,0,0,0-2,5.73v7.2h3.39v1.09H347.47v-1.09Z" transform="translate(-73.8 -327.56)"/><path class="cls-1" d="M388,699.22v16.07h3.39v1.09h-12v-1.09H383V700.64h-3.62v-1.1H383A35.49,35.49,0,0,0,388,699.22Zm-5.2-8.25a2.05,2.05,0,0,1,.84-1.63,3.24,3.24,0,0,1,4,0,2.06,2.06,0,0,1,0,3.31,3.27,3.27,0,0,1-4,0A2.07,2.07,0,0,1,382.81,691Z" transform="translate(-73.8 -327.56)"/><path class="cls-1" d="M415.71,710.56h1.12a7.93,7.93,0,0,1-3.06,4.73,9.12,9.12,0,0,1-5.48,1.63,10.77,10.77,0,0,1-7.4-2.69,8.06,8.06,0,0,1-3-6.18,8.18,8.18,0,0,1,3.1-6.32,11.3,11.3,0,0,1,7.71-2.72,9.46,9.46,0,0,1,5.35,1.38,3.83,3.83,0,0,1,2.07,3.1,2.08,2.08,0,0,1-.71,1.54,2.53,2.53,0,0,1-1.85.68,2.88,2.88,0,0,1-1.85-.58,1.83,1.83,0,0,1-.73-1.52,1.88,1.88,0,0,1,.63-1.3c.42-.43.63-.72.63-.88,0-.39-.32-.73-1-1a6.07,6.07,0,0,0-2.49-.44,5.73,5.73,0,0,0-4,1.2c-.88.8-1.31,2.49-1.31,5.08a46.52,46.52,0,0,0,.25,5.73,4.13,4.13,0,0,0,4.79,4Q413.65,716,415.71,710.56Z" transform="translate(-73.8 -327.56)"/><path class="cls-1" d="M445.39,699.54v15.75h3.49v1.09h-3.49a29.5,29.5,0,0,0-5.1.26v-4h-.1a7.89,7.89,0,0,1-7.32,4,7.78,7.78,0,0,1-4.62-1.25q-1.75-1.26-1.75-5.28v-9.47h-3.75v-1.1h8.8v11.32a12.06,12.06,0,0,0,.38,3.67c.26.68.93,1,2,1a6,6,0,0,0,4.39-2.11q2-2.12,2-6.36v-6.44H436.2v-1.1Z" transform="translate(-73.8 -327.56)"/><path class="cls-1" d="M458.84,715.29V700.64h-4.19v-1.1h4.24a32.62,32.62,0,0,0,5-.28v4h.1c1.21-2.7,3-4,5.36-4a3.79,3.79,0,0,1,2.49.79,2.38,2.38,0,0,1,.95,1.89,2,2,0,0,1-.77,1.66,3,3,0,0,1-2,.64c-1.48,0-2.22-.62-2.22-1.85l.1-.92c0-.33-.18-.49-.54-.49-.57,0-1.29.63-2.17,1.91s-1.32,3.21-1.32,5.82v6.58h4.29v1.09h-13.5v-1.09Z" transform="translate(-73.8 -327.56)"/><path class="cls-1" d="M497.72,706.68H484.63q-.18,6.35.85,7.81c.69,1,1.93,1.47,3.7,1.47q5.49,0,7.43-5.28h1.11a7.73,7.73,0,0,1-3.23,4.72,9.7,9.7,0,0,1-5.31,1.52,11,11,0,0,1-7.24-2.56,8.22,8.22,0,0,1-.06-12.78,10.4,10.4,0,0,1,7-2.57,9.6,9.6,0,0,1,6.07,2A7.27,7.27,0,0,1,497.72,706.68Zm-13.09-1h7.53a17.83,17.83,0,0,0,.2-2.31q0-3.43-3.75-3.43a4.65,4.65,0,0,0-2.92.83,2.67,2.67,0,0,0-1.06,2.24Z" transform="translate(-73.8 -327.56)"/><path class="cls-1" d="M540,706.68H526.9q-.18,6.35.85,7.81c.69,1,1.93,1.47,3.7,1.47q5.49,0,7.43-5.28H540a7.73,7.73,0,0,1-3.23,4.72,9.7,9.7,0,0,1-5.31,1.52,11,11,0,0,1-7.24-2.56,8.22,8.22,0,0,1-.06-12.78,10.4,10.4,0,0,1,7-2.57,9.6,9.6,0,0,1,6.07,2A7.27,7.27,0,0,1,540,706.68Zm-13.09-1h7.53a17.83,17.83,0,0,0,.2-2.31q0-3.43-3.75-3.43a4.65,4.65,0,0,0-2.92.83A2.67,2.67,0,0,0,526.9,703Z" transform="translate(-73.8 -327.56)"/><path class="cls-1" d="M571.65,713.58v12.81h4.19v1.22h-12.7v-1.22h3.5V700.64h-3.83v-1.1h2.92a57,57,0,0,0,5.92-.28v3.39h.11a7.15,7.15,0,0,1,6.62-3.64,9.3,9.3,0,0,1,6.45,2.52,7.77,7.77,0,0,1,2.78,6,8.36,8.36,0,0,1-3,6.42,9.93,9.93,0,0,1-6.77,2.71,7,7,0,0,1-6-3.06Zm10.2-5.57a32.19,32.19,0,0,0-.28-5.37,3,3,0,0,0-1.24-2,3.79,3.79,0,0,0-2.16-.65,5.83,5.83,0,0,0-4.06,1.39,7,7,0,0,0-2,2.72,12.6,12.6,0,0,0-.47,3.93,15.05,15.05,0,0,0,.44,4.15,4.62,4.62,0,0,0,2.11,2.48,6.9,6.9,0,0,0,3.71,1,3.26,3.26,0,0,0,3-1.49C581.54,713.2,581.85,711.13,581.85,708Z" transform="translate(-73.8 -327.56)"/><path class="cls-1" d="M614.31,706.68H601.22q-.18,6.35.86,7.81c.68,1,1.92,1.47,3.69,1.47a7.32,7.32,0,0,0,7.43-5.28h1.11a7.73,7.73,0,0,1-3.23,4.72,9.7,9.7,0,0,1-5.31,1.52,11,11,0,0,1-7.24-2.56,8.22,8.22,0,0,1-.06-12.78,10.42,10.42,0,0,1,7-2.57,9.6,9.6,0,0,1,6.07,2A7.27,7.27,0,0,1,614.31,706.68Zm-13.09-1h7.53a18.24,18.24,0,0,0,.21-2.31q0-3.43-3.75-3.43a4.66,4.66,0,0,0-2.93.83,2.7,2.7,0,0,0-1.06,2.24Z" transform="translate(-73.8 -327.56)"/><path class="cls-1" d="M642.74,687.33v28h3.49v1.09h-2.89q-2.75,0-5.8.26v-3.51h-.1a7,7,0,0,1-6.62,3.79,9,9,0,0,1-6.43-2.69,8.25,8.25,0,0,1-2.78-6.1,8.48,8.48,0,0,1,2.93-6.38,9.81,9.81,0,0,1,6.92-2.74,6.56,6.56,0,0,1,6,3h.1V688.75h-4.71v-1.1h4.71A43,43,0,0,0,642.74,687.33ZM631.62,700c-1.88,0-3.06.58-3.53,1.75s-.71,3.52-.71,7.08q0,4.61.9,5.81a3.42,3.42,0,0,0,2.92,1.19,6.23,6.23,0,0,0,3.83-1.22,5.74,5.74,0,0,0,2.18-2.78,18,18,0,0,0,.51-5.08,7,7,0,0,0-1.63-5.05A5.91,5.91,0,0,0,631.62,700Z" transform="translate(-73.8 -327.56)"/><path class="cls-1" d="M660.9,699.22v16.07h3.39v1.09h-12v-1.09h3.62V700.64h-3.62v-1.1h3.67A35.49,35.49,0,0,0,660.9,699.22ZM655.7,691a2.05,2.05,0,0,1,.84-1.63,3.24,3.24,0,0,1,4,0,2.06,2.06,0,0,1,0,3.31,3.27,3.27,0,0,1-4,0A2.07,2.07,0,0,1,655.7,691Z" transform="translate(-73.8 -327.56)"/><path class="cls-1" d="M688.61,710.56h1.11a8,8,0,0,1-3.05,4.73,9.17,9.17,0,0,1-5.49,1.63,10.77,10.77,0,0,1-7.4-2.69,8.09,8.09,0,0,1-3-6.18,8.18,8.18,0,0,1,3.1-6.32,11.3,11.3,0,0,1,7.71-2.72,9.5,9.5,0,0,1,5.36,1.38,3.85,3.85,0,0,1,2.07,3.1,2.09,2.09,0,0,1-.72,1.54,2.53,2.53,0,0,1-1.85.68,2.9,2.9,0,0,1-1.85-.58,1.83,1.83,0,0,1-.73-1.52,1.88,1.88,0,0,1,.63-1.3c.42-.43.64-.72.64-.88q0-.58-1-1a6.07,6.07,0,0,0-2.49-.44,5.73,5.73,0,0,0-4,1.2q-1.3,1.2-1.31,5.08a46.52,46.52,0,0,0,.25,5.73,4.86,4.86,0,0,0,1.3,2.91,4.81,4.81,0,0,0,3.5,1.07Q686.54,716,688.61,710.56Z" transform="translate(-73.8 -327.56)"/><path class="cls-1" d="M718.28,699.54v15.75h3.49v1.09h-3.49a29.5,29.5,0,0,0-5.1.26v-4h-.1a8.87,8.87,0,0,1-11.94,2.73q-1.74-1.26-1.74-5.28v-9.47h-3.76v-1.1h8.8v11.32a11.67,11.67,0,0,0,.39,3.67c.26.68.92,1,2,1a6,6,0,0,0,4.4-2.11c1.34-1.41,2-3.53,2-6.36v-6.44H709.1v-1.1Z" transform="translate(-73.8 -327.56)"/><path class="cls-1" d="M731.73,715.29V700.64h-4.19v-1.1h4.24a32.53,32.53,0,0,0,5-.28v4h.1q1.81-4,5.36-4a3.82,3.82,0,0,1,2.5.79,2.39,2.39,0,0,1,.94,1.89,2.07,2.07,0,0,1-.76,1.66,3,3,0,0,1-2,.64c-1.49,0-2.23-.62-2.23-1.85l.11-.92c0-.33-.19-.49-.55-.49-.57,0-1.29.63-2.17,1.91s-1.32,3.21-1.32,5.82v6.58H741v1.09h-13.5v-1.09Z" transform="translate(-73.8 -327.56)"/><path class="cls-1" d="M770.61,706.68H757.52q-.18,6.35.86,7.81c.69,1,1.92,1.47,3.7,1.47a7.32,7.32,0,0,0,7.42-5.28h1.11a7.73,7.73,0,0,1-3.23,4.72,9.69,9.69,0,0,1-5.3,1.52,11,11,0,0,1-7.25-2.56,8.22,8.22,0,0,1-.06-12.78,10.43,10.43,0,0,1,7-2.57,9.57,9.57,0,0,1,6.06,2A7.27,7.27,0,0,1,770.61,706.68Zm-13.09-1h7.53a18.24,18.24,0,0,0,.21-2.31q0-3.43-3.75-3.43a4.66,4.66,0,0,0-2.93.83,2.7,2.7,0,0,0-1.06,2.24Z" transform="translate(-73.8 -327.56)"/><path class="cls-1" d="M92.06,593.12q-6.18-17.8-9.86-23.78c-2.46-4-5.25-6-8.4-6V562.2h39.32v1.18q-8.1,0-9.05,6T109,593.12l16.35,47.42q9-25.92,16.34-47.56,5.59-16.05,4.71-22.83t-8.83-6.77V562.2h24.59v1.18q-4.28,0-7.58,4.71t-8,17.82l-27.24,79.37H117Z" transform="translate(-73.8 -327.56)"/><path class="cls-1" d="M192.65,586.05q15.75,0,23.78,7.22t8,22.68v49.33L207.52,656q-7.07,12.09-23.12,12.08a38.49,38.49,0,0,1-10.68-1.55A43.3,43.3,0,0,1,163.41,662a23.61,23.61,0,0,1-8-7.88A20.48,20.48,0,0,1,152.3,643a22.49,22.49,0,0,1,3.09-11.78,23,23,0,0,1,8-8.09,39.17,39.17,0,0,1,10.31-4.35,42.35,42.35,0,0,1,10.68-1.4A58.59,58.59,0,0,1,207.52,622v-6q0-27.24-14.14-27.24a8.91,8.91,0,0,0-5.52,2.13,19.48,19.48,0,0,0-4.71,5.45q-2,3.32-3,5.37c-.69,1.38-1.33,2.75-1.92,4.13a7.85,7.85,0,0,1-3.09,3.83,8.58,8.58,0,0,1-4.86,1.47,8.05,8.05,0,0,1-5.89-2.5,8.24,8.24,0,0,1-2.5-6q0-4,3.61-7.37a24.81,24.81,0,0,1,8.83-5.22,79.19,79.19,0,0,1,10.09-2.87A40.74,40.74,0,0,1,192.65,586.05Zm14.87,66.86V624.49A36.22,36.22,0,0,0,187.05,621a17.8,17.8,0,0,0-11.93,6.62,19.6,19.6,0,0,0-4.56,14.29q.58,11.19,7.43,17.08a17.75,17.75,0,0,0,15.54,4.27,19.7,19.7,0,0,0,8.61-3.76A16.71,16.71,0,0,0,207.52,652.91Z" transform="translate(-73.8 -327.56)"/><path class="cls-1" d="M310.16,634.36q0,7.65.15,12.51c.09,3.24.29,6.07.59,8.47a15.69,15.69,0,0,0,1.39,5.38,6.89,6.89,0,0,0,2.21,2.57,5.74,5.74,0,0,0,3.17.81v1.18H278.5V664.1q5.44,0,8.47-2.5t4.56-8.91q1.55-6.41,1.55-18.33V616q0-13.11-4.42-18.78t-10.6-5.67q-9.87,0-20.33,14.58v28.28q0,11.92,1.55,18.33t4.56,8.91q3,2.5,8.62,2.5v1.18H233.14V664.1a5.89,5.89,0,0,0,3.9-1.17q1.41-1.18,2.29-4.64a45.26,45.26,0,0,0,1.1-8.91q.23-5.45.22-15V619.63a156.14,156.14,0,0,0-.66-17.45c-.44-3.39-1.11-5.5-2-6.33s-2.5-1.25-4.86-1.25v-1.18l24.59-4.71v14.13q7.22-9.72,14.14-13.25a35.1,35.1,0,0,1,16.2-3.54q10.46,0,16.27,7.29T310.16,616Z" transform="translate(-73.8 -327.56)"/><path class="cls-1" d="M392,647.46l1.32,1a42.92,42.92,0,0,1-8.24,10.31,36.84,36.84,0,0,1-10.83,6.78,34.4,34.4,0,0,1-13.18,2.5,37.31,37.31,0,0,1-27.9-12,42.18,42.18,0,0,1,0-58,37.32,37.32,0,0,1,27.9-12,40.27,40.27,0,0,1,7.07.81,88.61,88.61,0,0,1,9.28,2.36,20.93,20.93,0,0,1,8.46,4.86,10.24,10.24,0,0,1,3.47,7.58q0,6.63-12.67,12.37T338.29,626.4c.19,1.58.44,3.15.73,4.72q2.66,14.86,11.27,22.82a28,28,0,0,0,19.51,7.95,23.75,23.75,0,0,0,11.93-3.6A28.61,28.61,0,0,0,392,647.46Zm-37.7-58.31q-8.25,1.32-12.81,11.56t-3.39,24.22q35.64-10.74,35.64-22.53,0-5.74-6.11-10.16A16.71,16.71,0,0,0,354.34,589.15Z" transform="translate(-73.8 -327.56)"/><path class="cls-1" d="M501.31,612.86q13.55,0,23,8.1t9.5,19.43q0,11.94-7.44,19.81t-20.54,7.88a37.27,37.27,0,0,1-9-1,34.88,34.88,0,0,1-7.07-2.5,20.23,20.23,0,0,1-5.52-4.13,37.46,37.46,0,0,1-7.81-11.12c-1.23-2.5-2.18-4.66-2.87-6.48l-2.72-7.14q-1.69-4.41-2.73-7.07-3.39-8.08-6.26-13.84a89.07,89.07,0,0,0-6.55-11,39.58,39.58,0,0,0-7.66-8.47,30.47,30.47,0,0,0-9-4.93,33.42,33.42,0,0,0-11.19-1.77,24.61,24.61,0,0,0-13.4,3.53q-5.61,3.54-5.6,8.54,0,5.46,6,8.84t18.63,3.39a36.58,36.58,0,0,1,16.35,3.68,30.65,30.65,0,0,1,11.93,10,23.73,23.73,0,0,1,4.42,13.84q0,11.49-9.58,19.59t-23.12,8.1v0a207.1,207.1,0,0,1-32.25-2.8V635.54h1.18a26.41,26.41,0,0,0,5.23,16.27,31.72,31.72,0,0,0,13.18,10.38,43.45,43.45,0,0,0,17.23,3.39,21.4,21.4,0,0,0,14.21-5q6-5,6-12.08a14.44,14.44,0,0,0-2.72-8.54q-2.73-3.83-8.62-6.11a40.12,40.12,0,0,0-14.43-2.28q-13,0-22.23-6.63t-9.28-16A20.79,20.79,0,0,1,408,592.53q7.44-6.48,20.11-6.48a30.92,30.92,0,0,1,9.05,1.33,36,36,0,0,1,7.73,3.31,31,31,0,0,1,6.63,5.38,72,72,0,0,1,5.6,6.55,57.39,57.39,0,0,1,4.78,7.88q2.43,4.71,4.13,8.32c1.12,2.41,2.38,5.33,3.75,8.76q1,2.35,2.65,6.34t2.43,6q.81,2.07,2.36,5.38t2.57,5.08q1,1.77,2.73,4.27a19.52,19.52,0,0,0,3.24,3.83q1.55,1.32,3.75,2.94a15.69,15.69,0,0,0,4.57,2.36,41.92,41.92,0,0,0,5.3,1.25,38,38,0,0,0,6.48.52,21.11,21.11,0,0,0,14.14-5,15.35,15.35,0,0,0,5.89-12.08,14.73,14.73,0,0,0-2.65-8.54q-2.65-3.83-8.54-6.11a40.17,40.17,0,0,0-14.44-2.28,40.65,40.65,0,0,1-12.22-1.84A35.19,35.19,0,0,1,478,624.86a24.06,24.06,0,0,1-6.7-7.22,16.86,16.86,0,0,1,0-17.67,24.9,24.9,0,0,1,6.7-7.29,32.76,32.76,0,0,1,10.09-4.86,42.25,42.25,0,0,1,12.22-1.77c1.87,0,3.56,0,5.09.08s3,.12,4.49.22,2.67.17,3.61.22,2.2.2,3.82.44l3.46.52,4,.59c2,.29,3.41.49,4.2.59v29.74h-1.18q0-14-9-21.94t-23.05-8a25,25,0,0,0-13.47,3.53c-3.79,2.36-5.67,5.21-5.67,8.54q0,5.46,6,8.84T501.31,612.86Z" transform="translate(-73.8 -327.56)"/><path class="cls-1" d="M581,586.05q15.76,0,23.79,7.22t8,22.68v49.33L595.85,656q-7.08,12.09-23.12,12.08a38.49,38.49,0,0,1-10.68-1.55A43.12,43.12,0,0,1,551.74,662a23.61,23.61,0,0,1-8-7.88,20.4,20.4,0,0,1-3.1-11.12,22.4,22.4,0,0,1,3.1-11.78,23,23,0,0,1,8-8.09,39,39,0,0,1,10.31-4.35,42.35,42.35,0,0,1,10.68-1.4A58.63,58.63,0,0,1,595.85,622v-6q0-27.24-14.14-27.24a8.89,8.89,0,0,0-5.52,2.13,19.67,19.67,0,0,0-4.72,5.45c-1.32,2.21-2.33,4-3,5.37s-1.33,2.75-1.92,4.13a7.85,7.85,0,0,1-3.09,3.83,8.58,8.58,0,0,1-4.86,1.47,8.05,8.05,0,0,1-5.89-2.5,8.24,8.24,0,0,1-2.5-6q0-4,3.6-7.37a24.86,24.86,0,0,1,8.84-5.22,79.19,79.19,0,0,1,10.09-2.87A40.66,40.66,0,0,1,581,586.05Zm14.88,66.86V624.49A36.23,36.23,0,0,0,575.38,621a17.8,17.8,0,0,0-11.93,6.62,19.65,19.65,0,0,0-4.57,14.29q.6,11.19,7.44,17.08a17.75,17.75,0,0,0,15.54,4.27,19.7,19.7,0,0,0,8.61-3.76A16.71,16.71,0,0,0,595.85,652.91Z" transform="translate(-73.8 -327.56)"/><path class="cls-1" d="M696.72,665.28H672V664.1a5.89,5.89,0,0,0,3.9-1.17c.93-.79,1.7-2.34,2.29-4.64a45.26,45.26,0,0,0,1.1-8.91q.22-5.45.22-15V593.12q0-12.66-.59-18.7t-2.13-8.54a5.23,5.23,0,0,0-4.79-2.5V562.2h24.59l53.75,78.34V593.12q0-11.93-1.54-18.33t-4.64-8.91q-3.09-2.5-8.54-2.5V562.2h24.74v1.18a5.4,5.4,0,0,0-4.86,2.5q-1.62,2.5-2.21,8.54t-.59,18.7v72.16h-2.36L682,565.73v68.63q0,11.92,1.55,18.33t4.57,8.91q3,2.5,8.61,2.5Z" transform="translate(-73.8 -327.56)"/><path class="cls-1" d="M804.37,586.05q15.75,0,23.78,7.22t8,22.68v49.33L819.24,656q-7.07,12.09-23.12,12.08a38.47,38.47,0,0,1-10.67-1.55A43.12,43.12,0,0,1,775.14,662a23.64,23.64,0,0,1-8-7.88A20.48,20.48,0,0,1,764,643a22.49,22.49,0,0,1,3.09-11.78,23,23,0,0,1,8-8.09,39,39,0,0,1,10.31-4.35,42.33,42.33,0,0,1,10.67-1.4A58.56,58.56,0,0,1,819.24,622v-6q0-27.24-14.13-27.24a8.94,8.94,0,0,0-5.53,2.13,19.64,19.64,0,0,0-4.71,5.45c-1.33,2.21-2.33,4-3,5.37s-1.32,2.75-1.91,4.13a7.81,7.81,0,0,1-3.1,3.83,8.57,8.57,0,0,1-4.85,1.47,8.07,8.07,0,0,1-5.9-2.5,8.24,8.24,0,0,1-2.5-6q0-4,3.61-7.37A24.81,24.81,0,0,1,786,590a79.66,79.66,0,0,1,10.09-2.87A40.74,40.74,0,0,1,804.37,586.05Zm14.87,66.86V624.49A36.2,36.2,0,0,0,798.77,621a17.83,17.83,0,0,0-11.93,6.62,19.69,19.69,0,0,0-4.56,14.29q.59,11.19,7.44,17.08a17.73,17.73,0,0,0,15.53,4.27,19.79,19.79,0,0,0,8.62-3.76A16.77,16.77,0,0,0,819.24,652.91Z" transform="translate(-73.8 -327.56)"/><path class="cls-1" d="M869.46,634.36q0,12.66.59,18.7c.39,4,1.1,6.87,2.13,8.54a5.23,5.23,0,0,0,4.79,2.5v1.18H844.86V664.1a5.23,5.23,0,0,0,4.79-2.5c1-1.67,1.74-4.51,2.14-8.54s.58-10.26.58-18.7V619.63q0-7.51-.22-11.93c-.14-2.94-.32-5.4-.51-7.36s-.66-3.31-1.4-4.05a5.17,5.17,0,0,0-2.14-1.4,13.15,13.15,0,0,0-3.24-.29v-1.18l24.6-4.71Zm37.55,0q0,9.57.29,15a47.67,47.67,0,0,0,1.18,8.91q.88,3.45,2.28,4.64a5.94,5.94,0,0,0,3.91,1.17v1.18H882.42V664.1H883a5.36,5.36,0,0,0,4.5-2.87q1.39-2.57,2-8.54t.59-18.33V593.12q0-18.25-1.17-22.16t-6.48-3a12.29,12.29,0,0,0-6,3.09c-1.87,1.67-2.21.57-1.62-.07a9.47,9.47,0,0,1,1.54-1.4l1.7-1.1a8.89,8.89,0,0,1,2.13-1c.74-.25,1.5-.47,2.29-.67L907,562.2Z" transform="translate(-73.8 -327.56)"/><path class="cls-1" d="M954.43,612.86q13.55,0,23.12,8.1t9.57,19.51q0,11.41-9.57,19.51t-23.12,8.1v0a207.32,207.32,0,0,1-32.26-2.8V635.54h1.18a26.47,26.47,0,0,0,5.23,16.27,31.72,31.72,0,0,0,13.18,10.38A43.49,43.49,0,0,0,959,665.58a21.36,21.36,0,0,0,14.21-5q6-5,6-12.08,0-7.35-6.56-12.15t-19.22-4.78q-13,0-22.23-6.7t-9.28-16a18.15,18.15,0,0,1,4.2-11.49,28,28,0,0,1,11.48-8.32,41,41,0,0,1,15.83-3c1.87,0,3.56,0,5.09.08s3,.12,4.56.22l3.61.22c.88,0,2.13.2,3.75.44l3.46.52,4,.59c2,.29,3.41.49,4.2.59v29.74h-1.18q0-14-9-21.94t-23-8a27.55,27.55,0,0,0-9.57,1.62,16.72,16.72,0,0,0-6.92,4.42,8.9,8.9,0,0,0-2.51,6q0,5.46,6,8.84T954.43,612.86Z" transform="translate(-73.8 -327.56)"/><path class="cls-2" d="M586.3,392.79C530,479.89,464,543.47,446.39,539.85c-17.13-3.52-25.54-22.27-25.54-75.57s28.51-134.68,25.54-117.45C390.48,670.8,603.27,366.55,586.3,392.79Z" transform="translate(-73.8 -327.56)"/><path class="cls-3" d="M468.42,493.47c55.18-87.81,120.4-152.24,138-148.84,17.17,3.3,25.82,21.94,26.5,75.24s-26.77,135-24,117.76C660.65,213,451.79,519.93,468.42,493.47Z" transform="translate(-73.8 -327.56)"/><path class="cls-3" d="M442.28,329.13h0a2.75,2.75,0,0,0-2,3.07s.8,3.08,6.81,6.5h0l-1.53-7.43A2.75,2.75,0,0,0,442.28,329.13Z" transform="translate(-73.8 -327.56)"/><path class="cls-3" d="M450.88,330a2.74,2.74,0,0,0-3.07-2h0a2.74,2.74,0,0,0-2.13,3.24l1.53,7.42h0C451.37,333.14,450.88,330,450.88,330Z" transform="translate(-73.8 -327.56)"/><path class="cls-3" d="M848.85,564.46h0a5.32,5.32,0,0,0-3.92,5.95s1.55,6,13.19,12.59h0l-3-14.4A5.33,5.33,0,0,0,848.85,564.46Z" transform="translate(-73.8 -327.56)"/><path class="cls-3" d="M865.52,566.16a5.32,5.32,0,0,0-5.94-3.91h0a5.32,5.32,0,0,0-4.14,6.29l3,14.38h0C866.46,572.24,865.52,566.16,865.52,566.16Z" transform="translate(-73.8 -327.56)"/></svg>