<?xml version="1.0" standalone="no"?><svg xmlns="http://www.w3.org/2000/svg" viewBox="0 0 1440 320"><path fill="#D9488B" fill-opacity="1" d="M0,160L34.3,160C68.6,160,137,160,206,176C274.3,192,343,224,411,229.3C480,235,549,213,617,186.7C685.7,160,754,128,823,101.3C891.4,75,960,53,1029,69.3C1097.1,85,1166,139,1234,144C1302.9,149,1371,107,1406,85.3L1440,64L1440,320L1405.7,320C1371.4,320,1303,320,1234,320C1165.7,320,1097,320,1029,320C960,320,891,320,823,320C754.3,320,686,320,617,320C548.6,320,480,320,411,320C342.9,320,274,320,206,320C137.1,320,69,320,34,320L0,320Z"></path></svg>