<svg id="Camada_1" data-name="Camada 1" xmlns="http://www.w3.org/2000/svg" viewBox="0 0 1080 1080"><defs><style>.cls-1{font-size:130px;font-family:MonotypeCorsiva, Monotype Corsiva;}.cls-1,.cls-3{fill:#1d1d1b;}.cls-2{fill:#e6007e;}.cls-2,.cls-3{stroke:#1d1d1b;stroke-miterlimit:10;stroke-width:0.75px;}</style></defs><text class="cls-1" transform="translate(146.27 486.78) rotate(-77.37) scale(1.09 1)">m</text><text class="cls-1" transform="matrix(0.43, -1.01, 0.92, 0.39, 165.67, 404.57)">a</text><text class="cls-1" transform="translate(187.32 352.23) rotate(-58.42) scale(1.09 1)">n</text><text class="cls-1" transform="matrix(0.68, -0.86, 0.78, 0.62, 220.92, 299.1)">i</text><text class="cls-1" transform="translate(240.5 273.7) rotate(-45.9) scale(1.09 1)">c</text><text class="cls-1" transform="matrix(0.86, -0.67, 0.62, 0.79, 271.67, 240.43)">u</text><text class="cls-1" transform="translate(321.35 202.21) rotate(-30.64) scale(1.09 1)">r</text><text class="cls-1" transform="matrix(1, -0.45, 0.41, 0.91, 355.92, 181.4)">e</text><text class="cls-1" transform="translate(398.24 162.6) rotate(-18.81) scale(1.09 1)"> </text><text class="cls-1" transform="translate(425.76 152.69) rotate(-13.28) scale(1.09 1)">e</text><text class="cls-1" transform="translate(470.89 142.37) rotate(-7.76) scale(1.09 1)"> </text><text class="cls-1" transform="matrix(1.09, -0.03, 0.02, 1, 499.44, 137.47)">p</text><text class="cls-1" transform="translate(559.28 136.36) rotate(6.24) scale(1.09 1)">e</text><text class="cls-1" transform="matrix(1.06, 0.26, -0.24, 0.97, 604.7, 140.66)">d</text><text class="cls-1" transform="translate(662.83 155.79) rotate(20.65) scale(1.09 1)">i</text><text class="cls-1" transform="translate(692.99 166.67) rotate(26.37) scale(1.09 1)">c</text><text class="cls-1" transform="translate(734.15 186.22) rotate(34.23) scale(1.09 1)">u</text><text class="cls-1" transform="translate(785.65 221.94) rotate(41.66) scale(1.09 1)">r</text><text class="cls-1" transform="matrix(0.73, 0.81, -0.74, 0.67, 816.01, 248.59)">e</text><text class="cls-1" transform="matrix(0.65, 0.88, -0.8, 0.6, 846.8, 283.15)"> </text><text class="cls-1" transform="translate(865.61 304.68) rotate(61.62) scale(1.09 1)">m</text><text class="cls-1" transform="translate(904.93 379.45) rotate(71.89) scale(1.09 1)">a</text><text class="cls-1" transform="translate(922.96 433.15) rotate(80.58) scale(1.09 1)">n</text><text class="cls-1" transform="translate(932.46 495.3) rotate(87.43) scale(1.09 1)">i</text><text class="cls-1" transform="translate(934.34 527.32) rotate(93.03) scale(1.09 1)">c</text><text class="cls-1" transform="matrix(-0.21, 1.07, -0.98, -0.19, 932.71, 572.89)">u</text><text class="cls-1" transform="translate(920.33 634.3) rotate(108.39) scale(1.09 1)">r</text><text class="cls-1" transform="translate(907.87 672.68) rotate(114.71) scale(1.09 1)">e</text><text class="cls-1" transform="matrix(-0.55, 0.94, -0.86, -0.5, 888.23, 714.61)"> </text><text class="cls-1" transform="translate(873.92 740.16) rotate(125.71) scale(1.09 1)">e</text><text class="cls-1" transform="matrix(-0.72, 0.82, -0.75, -0.66, 846.65, 777.56)"> </text><text class="cls-1" transform="translate(828.31 800.05) rotate(137.62) scale(1.09 1)">p</text><text class="cls-1" transform="matrix(-0.9, 0.62, -0.57, -0.82, 783.93, 840.15)">e</text><text class="cls-1" transform="translate(746.84 866.68) rotate(152.91) scale(1.09 1)">d</text><text class="cls-1" transform="translate(693.03 893.43) rotate(159.62) scale(1.09 1)">i</text><text class="cls-1" transform="translate(663.15 905.02) rotate(165.35) scale(1.09 1)">c</text><text class="cls-1" transform="matrix(-1.08, 0.13, -0.12, -0.99, 619.29, 917.28)">u</text><text class="cls-1" transform="translate(557.15 924.21) rotate(-179.07) scale(1.09 1)">r</text><text class="cls-1" transform="translate(516.56 923.94) rotate(-173.16) scale(1.09 1)">e</text><text class="cls-1" transform="matrix(-1.07, -0.23, 0.21, -0.98, 470.63, 918.11)"> </text><text class="cls-1" transform="matrix(-1.02, -0.39, 0.35, -0.94, 442.33, 914.22)">m</text><text class="cls-1" transform="translate(363.63 883.52) rotate(-149.08) scale(1.09 1)">a</text><text class="cls-1" transform="translate(314.79 854.77) rotate(-140.47) scale(1.09 1)">n</text><text class="cls-1" transform="translate(266.81 814.16) rotate(-133.63) scale(1.09 1)">i</text><text class="cls-1" transform="translate(244.36 791.25) rotate(-127.97) scale(1.09 1)">c</text><text class="cls-1" transform="matrix(-0.55, -0.94, 0.86, -0.5, 215.72, 755.82)">u</text><text class="cls-1" transform="translate(184.75 701.32) rotate(-112.64) scale(1.09 1)">r</text><text class="cls-1" transform="translate(168.96 664.2) rotate(-106.32) scale(1.09 1)">e</text><text class="cls-1" transform="translate(156.26 619.68) rotate(-100.78) scale(1.09 1)"> </text><path class="cls-2" d="M683,427.84C559.23,619.25,414.1,759,375.47,751c-37.63-7.75-56.11-48.95-56.11-166.09S382,289,375.47,326.84C252.61,1038.81,720.24,370.16,683,427.84Z"/><path class="cls-3" d="M423.9,649.11C545.16,456.13,688.49,314.54,727.21,322c37.73,7.27,56.73,48.23,58.24,165.36s-58.84,296.75-52.8,258.81C846.37,32.66,387.35,707.26,423.9,649.11Z"/><path class="cls-3" d="M366.44,287.93h0a6,6,0,0,0-4.44,6.75s1.75,6.77,15,14.28h0l-3.37-16.33A6.05,6.05,0,0,0,366.44,287.93Z"/><path class="cls-3" d="M385.35,289.86a6,6,0,0,0-6.74-4.44h0a6,6,0,0,0-4.69,7.14l3.36,16.31h0C386.42,296.75,385.35,289.86,385.35,289.86Z"/></svg>