<svg id="Camada_1" data-name="Camada 1" xmlns="http://www.w3.org/2000/svg" viewBox="0 0 1080 1080"><defs><style>.cls-1{fill:#e50c7e;}.cls-1,.cls-2{stroke:#1e1e1c;stroke-miterlimit:10;stroke-width:0.75px;}.cls-2,.cls-3{fill:#1e1e1c;}</style></defs><path class="cls-1" d="M595.45,377.73c-56.3,87.1-122.3,150.68-139.91,147.06C438.41,521.27,430,502.52,430,449.22s28.51-134.68,25.54-117.45C399.63,655.74,612.42,351.49,595.45,377.73Z"/><path class="cls-2" d="M477.57,478.41c55.18-87.81,120.4-152.24,138-148.84,17.17,3.3,25.82,21.94,26.5,75.24s-26.77,135-24,117.76C669.8,197.94,460.94,504.87,477.57,478.41Z"/><path class="cls-2" d="M451.43,314.07h0a2.73,2.73,0,0,0-2,3.07s.8,3.08,6.81,6.5h0l-1.53-7.43a2.76,2.76,0,0,0-3.25-2.15Z"/><path class="cls-2" d="M460,314.94a2.74,2.74,0,0,0-3.07-2h0a2.74,2.74,0,0,0-2.14,3.23h0l1.53,7.42h0C460.52,318.08,460,314.94,460,314.94Z"/><path class="cls-3" d="M275.14,715.13V700.48h-3.65v-1.1h2.28a54.89,54.89,0,0,0,6.41-.28v4.14h.11q2-4.14,7.29-4.14c3.81,0,5.92,1.47,6.31,4.4H294a7.76,7.76,0,0,1,7.47-4.4,7.49,7.49,0,0,1,3.92,1,4.05,4.05,0,0,1,2,2.23,16.24,16.24,0,0,1,.37,4.17v8.66h3.6v1.09h-12v-1.09h3.39V704.55a11.48,11.48,0,0,0-.35-3.45c-.23-.63-.86-1-1.88-1a6.64,6.64,0,0,0-4.3,2q-2.22,2-2.22,7.44v5.57h3.34v1.09H285.56v-1.09h3.37v-8.27c0-3.23-.15-5.15-.43-5.76a2,2,0,0,0-2-.93,5.33,5.33,0,0,0-3.84,1.61,7.08,7.08,0,0,0-2.05,3.13,21.25,21.25,0,0,0-.4,4.84v5.4h3.34v1.09h-12v-1.09Z"/><path class="cls-3" d="M331.66,706.6v-2.18a7.7,7.7,0,0,0-.53-3.52c-.35-.55-1.31-.83-2.86-.83-2.79,0-4.19.44-4.19,1.33a1.44,1.44,0,0,0,.35.84,1.79,1.79,0,0,1,.35,1.09,1.48,1.48,0,0,1-.7,1.33,2.71,2.71,0,0,1-1.58.47,2.43,2.43,0,0,1-1.75-.59,1.85,1.85,0,0,1-.63-1.39c0-1.14.81-2.1,2.42-2.88a15.84,15.84,0,0,1,6.74-1.17,14.29,14.29,0,0,1,5.07.67,3.26,3.26,0,0,1,2,1.65,8,8,0,0,1,.38,2.78v7.89a4.83,4.83,0,0,0,.29,2.16,1,1,0,0,0,.92.43,2.41,2.41,0,0,0,1.81-1h.65c-.45,2.09-1.92,3.13-4.39,3.13a3.92,3.92,0,0,1-4.3-3.43,9.18,9.18,0,0,1-7.09,3.43,6.89,6.89,0,0,1-4.29-1.21,3.6,3.6,0,0,1-1.6-3Q318.68,707.12,331.66,706.6Zm0,3.3v-2.31q-4.79.15-6.31,1.19a3.38,3.38,0,0,0-1.53,3,2.76,2.76,0,0,0,.92,2.23,3.09,3.09,0,0,0,2.11.79,4.69,4.69,0,0,0,2.76-.85,4.77,4.77,0,0,0,1.64-1.7A5.69,5.69,0,0,0,331.66,709.9Z"/><path class="cls-3" d="M350.55,715.13V700.48h-3.68v-1.1h2.36a53.57,53.57,0,0,0,6.33-.32v4.18h.11a8.34,8.34,0,0,1,7.53-4.4,6.73,6.73,0,0,1,3.73,1,5.07,5.07,0,0,1,2,2.27,11.54,11.54,0,0,1,.53,4v9h4v1.09H361v-1.09h3.43V704.42A10.61,10.61,0,0,0,364,701c-.25-.63-.9-.94-2-.94a6.08,6.08,0,0,0-4.51,2.13,8,8,0,0,0-2,5.73v7.2h3.39v1.09h-12v-1.09Z"/><path class="cls-3" d="M387.4,699.06v16.07h3.39v1.09h-12v-1.09h3.61V700.48h-3.62v-1.1h3.62A34.89,34.89,0,0,0,387.4,699.06Zm-5.2-8.25a2.07,2.07,0,0,1,.84-1.63,3.24,3.24,0,0,1,4,0,2.07,2.07,0,0,1,.43,2.88,2,2,0,0,1-.43.43,3.27,3.27,0,0,1-4,0,2.06,2.06,0,0,1-.83-1.65Z"/><path class="cls-3" d="M415.11,710.4h1.12a8,8,0,0,1-3.06,4.73,9.1,9.1,0,0,1-5.48,1.63,10.76,10.76,0,0,1-7.4-2.69,8.06,8.06,0,0,1-3-6.18,8.2,8.2,0,0,1,3.1-6.32,11.27,11.27,0,0,1,7.71-2.72,9.51,9.51,0,0,1,5.35,1.38,3.85,3.85,0,0,1,2.07,3.1,2.11,2.11,0,0,1-.71,1.54,2.54,2.54,0,0,1-1.85.68,2.86,2.86,0,0,1-1.85-.58,1.81,1.81,0,0,1-.73-1.52,1.86,1.86,0,0,1,.63-1.3c.42-.43.63-.72.63-.88,0-.39-.32-.73-1-1a6.07,6.07,0,0,0-2.49-.44,5.7,5.7,0,0,0-4,1.2c-.88.8-1.31,2.49-1.31,5.08a45.61,45.61,0,0,0,.25,5.73,4.12,4.12,0,0,0,4.21,4,3.79,3.79,0,0,0,.58,0Q413.05,715.84,415.11,710.4Z"/><path class="cls-3" d="M444.79,699.38v15.75h3.49v1.09h-3.49a30,30,0,0,0-5.1.26v-4h-.1a7.9,7.9,0,0,1-7.32,4,7.79,7.79,0,0,1-4.62-1.25Q425.9,714,425.9,710v-9.47h-3.75v-1.1H431V710.7a11.92,11.92,0,0,0,.38,3.67c.26.68.93,1,2,1a6,6,0,0,0,4.39-2.11q2-2.12,2-6.36v-6.44H435.6v-1.1Z"/><path class="cls-3" d="M458.24,715.13V700.48h-4.19v-1.1h4.24a32.18,32.18,0,0,0,5-.28v4h.1c1.21-2.7,3-4,5.36-4a3.79,3.79,0,0,1,2.49.79,2.39,2.39,0,0,1,.95,1.89,2,2,0,0,1-.77,1.66,3,3,0,0,1-2,.64c-1.48,0-2.22-.62-2.22-1.85l.1-.92c0-.33-.18-.49-.54-.49-.57,0-1.29.63-2.17,1.91a10.33,10.33,0,0,0-1.32,5.82v6.58h4.29v1.09h-13.5v-1.09Z"/><path class="cls-3" d="M497.12,706.52H484q-.18,6.36.85,7.81c.69,1,1.93,1.47,3.7,1.47a7.32,7.32,0,0,0,7.43-5.28h1.11a7.71,7.71,0,0,1-3.23,4.72,9.7,9.7,0,0,1-5.31,1.52,11,11,0,0,1-7.24-2.56,8.25,8.25,0,0,1-.06-12.78,10.39,10.39,0,0,1,7-2.57,9.65,9.65,0,0,1,6.07,2A7.26,7.26,0,0,1,497.12,706.52Zm-13.09-1h7.53a17.7,17.7,0,0,0,.2-2.31c0-2.28-1.25-3.43-3.75-3.43a4.66,4.66,0,0,0-2.92.83,2.67,2.67,0,0,0-1.06,2.24Z"/><path class="cls-3" d="M539.4,706.52H526.3q-.18,6.36.85,7.81c.69,1,1.93,1.47,3.7,1.47a7.32,7.32,0,0,0,7.43-5.28h1.12a7.71,7.71,0,0,1-3.23,4.72,9.7,9.7,0,0,1-5.31,1.52,11,11,0,0,1-7.24-2.56,8.25,8.25,0,0,1-.06-12.78,10.39,10.39,0,0,1,7-2.57,9.65,9.65,0,0,1,6.07,2A7.26,7.26,0,0,1,539.4,706.52Zm-13.09-1h7.53a17.7,17.7,0,0,0,.2-2.31c0-2.28-1.25-3.43-3.75-3.43a4.66,4.66,0,0,0-2.92.83,2.68,2.68,0,0,0-1.07,2.23Z"/><path class="cls-3" d="M571.05,713.42v12.81h4.19v1.22h-12.7v-1.22H566V700.48h-3.83v-1.1h2.92a55.73,55.73,0,0,0,5.92-.28v3.39h.11a7.17,7.17,0,0,1,6.62-3.64,9.32,9.32,0,0,1,6.45,2.52,7.81,7.81,0,0,1,2.78,6,8.37,8.37,0,0,1-3,6.42,9.91,9.91,0,0,1-6.77,2.71,7,7,0,0,1-6-3.06Zm10.2-5.57a32.17,32.17,0,0,0-.28-5.37,3,3,0,0,0-1.24-2,3.78,3.78,0,0,0-2.16-.65,5.85,5.85,0,0,0-4.06,1.39,7,7,0,0,0-2,2.72,12.76,12.76,0,0,0-.47,3.93,14.84,14.84,0,0,0,.44,4.15,4.6,4.6,0,0,0,2.11,2.48,6.83,6.83,0,0,0,3.71,1,3.25,3.25,0,0,0,3-1.49c.64-1,1-3,1-6.17Z"/><path class="cls-3" d="M613.71,706.52H600.62q-.18,6.36.86,7.81c.68,1,1.92,1.47,3.69,1.47a7.32,7.32,0,0,0,7.43-5.28h1.11a7.71,7.71,0,0,1-3.23,4.72,9.7,9.7,0,0,1-5.31,1.52,11,11,0,0,1-7.24-2.56,8.25,8.25,0,0,1-.06-12.78,10.46,10.46,0,0,1,7-2.57,9.65,9.65,0,0,1,6.07,2A7.26,7.26,0,0,1,613.71,706.52Zm-13.09-1h7.53a17.71,17.71,0,0,0,.21-2.31c0-2.28-1.25-3.43-3.75-3.43a4.71,4.71,0,0,0-2.93.83,2.69,2.69,0,0,0-1.06,2.24Z"/><path class="cls-3" d="M642.14,687.17v28h3.49v1.09h-2.89c-1.83,0-3.77.09-5.8.26V713h-.1a7,7,0,0,1-6.62,3.79,8.94,8.94,0,0,1-6.43-2.69A8.23,8.23,0,0,1,621,708a8.5,8.5,0,0,1,2.93-6.38,9.84,9.84,0,0,1,6.92-2.74,6.58,6.58,0,0,1,6,3h.1v-13.3h-4.71v-1.1H637A42.75,42.75,0,0,0,642.14,687.17ZM631,699.84c-1.88,0-3.06.58-3.53,1.75s-.71,3.52-.71,7.08c0,3.08.3,5,.9,5.81a3.42,3.42,0,0,0,2.92,1.19,6.21,6.21,0,0,0,3.83-1.22,5.76,5.76,0,0,0,2.18-2.78,18.09,18.09,0,0,0,.51-5.08,7,7,0,0,0-1.63-5.05A5.91,5.91,0,0,0,631,699.84Z"/><path class="cls-3" d="M660.3,699.06v16.07h3.39v1.09h-12v-1.09h3.62V700.48h-3.62v-1.1h3.67A35.53,35.53,0,0,0,660.3,699.06Zm-5.2-8.22a2.07,2.07,0,0,1,.84-1.63,3.24,3.24,0,0,1,4,0,2.07,2.07,0,0,1,.43,2.88,2,2,0,0,1-.43.43,3.27,3.27,0,0,1-4,0A2.06,2.06,0,0,1,655.1,690.84Z"/><path class="cls-3" d="M688,710.4h1.11a8,8,0,0,1-3,4.73,9.11,9.11,0,0,1-5.49,1.63,10.76,10.76,0,0,1-7.4-2.69,8.06,8.06,0,0,1-3-6.18,8.2,8.2,0,0,1,3.1-6.32,11.27,11.27,0,0,1,7.71-2.72,9.54,9.54,0,0,1,5.36,1.38,3.85,3.85,0,0,1,2.07,3.1,2.08,2.08,0,0,1-.72,1.54,2.54,2.54,0,0,1-1.85.68A2.86,2.86,0,0,1,684,705a1.81,1.81,0,0,1-.73-1.52,1.86,1.86,0,0,1,.63-1.3c.42-.43.64-.72.64-.88,0-.38-.33-.72-1-1a6.07,6.07,0,0,0-2.49-.44,5.7,5.7,0,0,0-4,1.2c-.87.8-1.3,2.5-1.31,5.08a45.61,45.61,0,0,0,.25,5.73,4.14,4.14,0,0,0,4.8,4Q685.94,715.85,688,710.4Z"/><path class="cls-3" d="M717.68,699.38v15.75h3.49v1.09h-3.49a30,30,0,0,0-5.1.26v-4h-.1a8.86,8.86,0,0,1-11.94,2.73q-1.74-1.26-1.74-5.28v-9.47H695v-1.1h8.8v11.32a11.62,11.62,0,0,0,.39,3.67c.26.68.92,1,2,1a6,6,0,0,0,4.4-2.11c1.34-1.41,2-3.53,2-6.36v-6.44H708.5v-1.1Z"/><path class="cls-3" d="M731.13,715.13V700.48h-4.19v-1.1h4.24a32.18,32.18,0,0,0,5-.28v4h.1c1.21-2.66,3-4,5.36-4a3.83,3.83,0,0,1,2.5.79,2.38,2.38,0,0,1,.94,1.89,2,2,0,0,1-.76,1.66,3,3,0,0,1-2,.64c-1.49,0-2.23-.62-2.23-1.85l.11-.92c0-.33-.19-.49-.55-.49-.57,0-1.29.63-2.17,1.91a10.33,10.33,0,0,0-1.32,5.82v6.58h4.24v1.09H726.9v-1.09Z"/><path class="cls-3" d="M770,706.52H756.92q-.18,6.36.86,7.81c.69,1,1.92,1.47,3.7,1.47a7.33,7.33,0,0,0,7.42-5.28H770a7.71,7.71,0,0,1-3.23,4.72,9.65,9.65,0,0,1-5.3,1.52,11,11,0,0,1-7.25-2.56,8.25,8.25,0,0,1-.06-12.78,10.46,10.46,0,0,1,7-2.57,9.6,9.6,0,0,1,6.06,2A7.3,7.3,0,0,1,770,706.52Zm-13.09-1h7.53a17.71,17.71,0,0,0,.21-2.31c0-2.28-1.25-3.43-3.75-3.43a4.71,4.71,0,0,0-2.93.83,2.69,2.69,0,0,0-1.06,2.24Z"/><path class="cls-3" d="M91.46,593q-6.18-17.79-9.86-23.78c-2.46-4-5.25-6-8.4-6V562h39.32v1.18q-8.1,0-9,6T108.4,593l16.35,47.42q9-25.92,16.34-47.56,5.59-16.05,4.71-22.83T137,563.22V562h24.59v1.18q-4.27,0-7.58,4.71t-8,17.82l-27.24,79.37H116.4Z"/><path class="cls-3" d="M192.05,585.89q15.75,0,23.78,7.22t8,22.68v49.33l-16.91-9.28q-7.06,12.09-23.12,12.08a38.21,38.21,0,0,1-10.68-1.55,43.11,43.11,0,0,1-10.31-4.53,23.56,23.56,0,0,1-8-7.88,20.5,20.5,0,0,1-3.11-11.12,22.57,22.57,0,0,1,3.09-11.78,23.12,23.12,0,0,1,8-8.09,39.35,39.35,0,0,1,10.31-4.35,42.25,42.25,0,0,1,10.68-1.4,58.73,58.73,0,0,1,23.14,4.62v-6q0-27.24-14.14-27.24a8.88,8.88,0,0,0-5.52,2.13,19.52,19.52,0,0,0-4.71,5.45q-2,3.33-3,5.37c-.69,1.38-1.33,2.75-1.92,4.13a7.82,7.82,0,0,1-3.09,3.83,8.6,8.6,0,0,1-4.86,1.47,8,8,0,0,1-5.89-2.5,8.21,8.21,0,0,1-2.5-6q0-4,3.61-7.37a24.94,24.94,0,0,1,8.83-5.22A78.86,78.86,0,0,1,183.82,587,41.49,41.49,0,0,1,192.05,585.89Zm14.87,66.86V624.33a36.27,36.27,0,0,0-20.47-3.49,17.83,17.83,0,0,0-11.93,6.62A19.55,19.55,0,0,0,170,641.75q.58,11.19,7.43,17.08a17.73,17.73,0,0,0,15.54,4.27,19.72,19.72,0,0,0,8.61-3.76,16.69,16.69,0,0,0,5.38-6.59Z"/><path class="cls-3" d="M309.56,634.2q0,7.65.15,12.51c.09,3.24.29,6.07.59,8.47a15.67,15.67,0,0,0,1.39,5.38,6.86,6.86,0,0,0,2.21,2.57,5.69,5.69,0,0,0,3.17.81v1.18H277.9v-1.18q5.44,0,8.47-2.5t4.56-8.91q1.54-6.4,1.55-18.33V615.84q0-13.11-4.42-18.78t-10.6-5.67q-9.87,0-20.33,14.58v28.28q0,11.93,1.55,18.33t4.56,8.91q3,2.5,8.62,2.5v1.18H232.54v-1.23a5.87,5.87,0,0,0,3.9-1.17q1.41-1.17,2.29-4.64a45.24,45.24,0,0,0,1.1-8.91q.22-5.44.22-15V619.47a158.87,158.87,0,0,0-.66-17.45q-.66-5.09-2-6.33c-.89-.83-2.5-1.25-4.86-1.25v-1.18l24.59-4.71v14.13q7.22-9.72,14.14-13.25a35.19,35.19,0,0,1,16.2-3.54q10.46,0,16.27,7.29t5.83,22.66Z"/><path class="cls-3" d="M391.4,647.3l1.32,1a43,43,0,0,1-8.24,10.31,36.67,36.67,0,0,1-10.83,6.78,34.43,34.43,0,0,1-13.18,2.5,37.29,37.29,0,0,1-27.9-12,42.18,42.18,0,0,1,0-58,37.36,37.36,0,0,1,27.9-12,40,40,0,0,1,7.07.81,90.08,90.08,0,0,1,9.28,2.36,21,21,0,0,1,8.46,4.86,10.25,10.25,0,0,1,3.47,7.58q0,6.63-12.67,12.37t-38.39,12.37c.19,1.58.44,3.15.73,4.72q2.65,14.87,11.27,22.82a28,28,0,0,0,19.51,8,23.69,23.69,0,0,0,11.93-3.6A28.64,28.64,0,0,0,391.4,647.3ZM353.7,589q-8.25,1.32-12.81,11.56t-3.39,24.22q35.64-10.74,35.64-22.53,0-5.73-6.11-10.16A16.72,16.72,0,0,0,353.74,589Z"/><path class="cls-3" d="M500.71,612.7q13.55,0,23,8.1t9.5,19.43q0,11.94-7.44,19.81t-20.54,7.88a36.86,36.86,0,0,1-9-1,34.17,34.17,0,0,1-7.07-2.5,20.3,20.3,0,0,1-5.52-4.13,37.41,37.41,0,0,1-7.81-11.12c-1.23-2.5-2.18-4.66-2.87-6.48l-2.72-7.14c-1.13-2.94-2-5.29-2.73-7.07q-3.39-8.07-6.26-13.84a90.36,90.36,0,0,0-6.55-11,39.56,39.56,0,0,0-7.66-8.47,30.38,30.38,0,0,0-9-4.93,33.52,33.52,0,0,0-11.19-1.77,24.68,24.68,0,0,0-13.4,3.53q-5.61,3.54-5.6,8.54,0,5.46,6,8.84t18.63,3.39a36.72,36.72,0,0,1,16.35,3.68,30.69,30.69,0,0,1,11.93,10,23.77,23.77,0,0,1,4.42,13.84q0,11.49-9.58,19.59T432.48,668h0a206.2,206.2,0,0,1-32.25-2.8v-29.8h1.18a26.37,26.37,0,0,0,5.23,16.27A31.64,31.64,0,0,0,419.82,662a43.34,43.34,0,0,0,17.23,3.39,21.37,21.37,0,0,0,14.21-5q6-5,6-12.08a14.47,14.47,0,0,0-2.72-8.54q-2.73-3.82-8.62-6.11a40.25,40.25,0,0,0-14.43-2.28q-13,0-22.23-6.63t-9.28-16a20.78,20.78,0,0,1,7.42-16.41q7.44-6.48,20.11-6.48a30.89,30.89,0,0,1,9.05,1.33,36.17,36.17,0,0,1,7.73,3.31,31,31,0,0,1,6.63,5.38,74.4,74.4,0,0,1,5.6,6.55,58,58,0,0,1,4.78,7.88q2.43,4.71,4.13,8.32c1.12,2.41,2.38,5.33,3.75,8.76q1,2.36,2.65,6.34t2.43,6c.54,1.38,1.33,3.18,2.36,5.38s1.89,3.9,2.57,5.08,1.58,2.61,2.73,4.27a19.46,19.46,0,0,0,3.24,3.83q1.54,1.32,3.75,2.94a15.75,15.75,0,0,0,4.57,2.36,42,42,0,0,0,5.3,1.25,38,38,0,0,0,6.48.52,21.11,21.11,0,0,0,14.14-5,15.36,15.36,0,0,0,5.89-12.08,14.75,14.75,0,0,0-2.65-8.54q-2.65-3.82-8.54-6.11a40.31,40.31,0,0,0-14.44-2.28,40.5,40.5,0,0,1-12.22-1.84,35.16,35.16,0,0,1-10-4.84,23.94,23.94,0,0,1-6.7-7.22,16.88,16.88,0,0,1,0-17.67,24.93,24.93,0,0,1,6.7-7.29,32.93,32.93,0,0,1,10.09-4.86,42.45,42.45,0,0,1,12.22-1.77c1.87,0,3.56,0,5.09.08s3,.12,4.49.22l3.61.22c.94.05,2.2.2,3.82.44l3.46.52,4,.59c2,.29,3.41.49,4.2.59v29.74H527.2q0-14-9-21.94t-23.05-8a25,25,0,0,0-13.47,3.53c-3.79,2.36-5.67,5.21-5.67,8.54q0,5.46,6,8.84T500.71,612.7Z"/><path class="cls-3" d="M580.4,585.89q15.76,0,23.79,7.22t8,22.68v49.33l-16.94-9.28q-7.08,12.09-23.12,12.08a38.21,38.21,0,0,1-10.68-1.55,42.71,42.71,0,0,1-10.31-4.53,23.56,23.56,0,0,1-8-7.88,20.4,20.4,0,0,1-3.1-11.12,22.37,22.37,0,0,1,3.1-11.78,23.12,23.12,0,0,1,8-8.09,39,39,0,0,1,10.31-4.35,42.25,42.25,0,0,1,10.68-1.4,58.67,58.67,0,0,1,23.12,4.62v-6q0-27.24-14.14-27.24a8.88,8.88,0,0,0-5.52,2.13,19.55,19.55,0,0,0-4.72,5.45c-1.32,2.21-2.33,4-3,5.37s-1.33,2.75-1.92,4.13a7.82,7.82,0,0,1-3.09,3.83A8.6,8.6,0,0,1,558,611a8,8,0,0,1-5.89-2.5,8.21,8.21,0,0,1-2.5-6,10,10,0,0,1,3.6-7.37,25,25,0,0,1,8.84-5.22A78.86,78.86,0,0,1,572.14,587,40.36,40.36,0,0,1,580.4,585.89Zm14.88,66.86V624.33a36.29,36.29,0,0,0-20.5-3.49,17.83,17.83,0,0,0-11.93,6.62,19.65,19.65,0,0,0-4.57,14.29q.6,11.19,7.44,17.08a17.73,17.73,0,0,0,15.54,4.27,19.72,19.72,0,0,0,8.61-3.76,16.69,16.69,0,0,0,5.38-6.59Z"/><path class="cls-3" d="M696.12,665.12H671.4v-1.18a5.87,5.87,0,0,0,3.9-1.17c.93-.79,1.7-2.34,2.29-4.64a45.24,45.24,0,0,0,1.1-8.91q.22-5.44.22-15V593q0-12.66-.59-18.7t-2.13-8.54a5.22,5.22,0,0,0-4.79-2.5V562H696l53.75,78.34V593q0-11.93-1.54-18.33t-4.64-8.91c-2.06-1.66-4.91-2.5-8.54-2.5V562h24.74v1.18a5.41,5.41,0,0,0-4.86,2.5q-1.62,2.5-2.21,8.54T752.1,593v72.16h-2.36L681.4,565.57V634.2q0,11.92,1.55,18.33t4.57,8.91q3,2.5,8.61,2.5Z"/><path class="cls-3" d="M803.77,585.89q15.75,0,23.78,7.22t8,22.68v49.33l-16.91-9.28q-7.07,12.09-23.12,12.08a38.2,38.2,0,0,1-10.67-1.55,42.71,42.71,0,0,1-10.31-4.53,23.56,23.56,0,0,1-8-7.88,20.53,20.53,0,0,1-3.14-11.12,22.57,22.57,0,0,1,3.09-11.78,23.12,23.12,0,0,1,8-8.09,39,39,0,0,1,10.31-4.35,42.23,42.23,0,0,1,10.67-1.4,58.52,58.52,0,0,1,23.17,4.62v-6q0-27.24-14.13-27.24a8.93,8.93,0,0,0-5.53,2.13,19.68,19.68,0,0,0-4.71,5.45q-2,3.32-3,5.37c-.67,1.37-1.32,2.75-1.91,4.13a7.79,7.79,0,0,1-3.1,3.83,8.55,8.55,0,0,1-4.85,1.47,8.06,8.06,0,0,1-5.9-2.5,8.21,8.21,0,0,1-2.5-6q0-4,3.61-7.37a24.85,24.85,0,0,1,8.78-5.27A80.52,80.52,0,0,1,795.49,587,41.19,41.19,0,0,1,803.77,585.89Zm14.87,66.86V624.33a36.19,36.19,0,0,0-20.47-3.49,17.83,17.83,0,0,0-11.93,6.62,19.65,19.65,0,0,0-4.56,14.29q.59,11.19,7.44,17.08a17.71,17.71,0,0,0,15.53,4.27,19.76,19.76,0,0,0,8.62-3.76A16.8,16.8,0,0,0,818.64,652.75Z"/><path class="cls-3" d="M868.86,634.2q0,12.66.59,18.7c.39,4,1.1,6.87,2.13,8.54a5.22,5.22,0,0,0,4.79,2.5v1.18H844.26v-1.18a5.22,5.22,0,0,0,4.79-2.5c1-1.67,1.74-4.51,2.14-8.54s.58-10.26.58-18.7V619.47q0-7.5-.22-11.93c-.14-2.94-.32-5.4-.51-7.36a6.65,6.65,0,0,0-1.4-4,5.18,5.18,0,0,0-2.14-1.4,13,13,0,0,0-3.24-.29v-1.18l24.6-4.71Zm37.55,0q0,9.57.29,15a47.71,47.71,0,0,0,1.18,8.91q.89,3.45,2.28,4.64a5.9,5.9,0,0,0,3.91,1.17v1.18H881.82v-1.16h.58a5.36,5.36,0,0,0,4.5-2.87c.93-1.71,1.59-4.56,2-8.54s.6-10.09.59-18.33V593q0-18.24-1.17-22.16t-6.48-3a12.27,12.27,0,0,0-6,3.09c-1.87,1.67-2.21.57-1.62-.07a9.74,9.74,0,0,1,1.54-1.4l1.7-1.1a9.21,9.21,0,0,1,2.13-1c.74-.25,1.5-.47,2.29-.67L906.4,562Z"/><path class="cls-3" d="M953.83,612.7q13.54,0,23.12,8.1t9.57,19.51q0,11.41-9.57,19.51t-23.12,8.1h0a206.32,206.32,0,0,1-32.26-2.8V635.38h1.18A26.45,26.45,0,0,0,928,651.65,31.64,31.64,0,0,0,941.16,662a43.42,43.42,0,0,0,17.24,3.39,21.31,21.31,0,0,0,14.21-5q6-5,6-12.08,0-7.35-6.56-12.15t-19.22-4.78q-13,0-22.23-6.7t-9.28-16a18.15,18.15,0,0,1,4.2-11.49A28,28,0,0,1,937,588.9a41.1,41.1,0,0,1,15.83-3c1.87,0,3.56,0,5.09.08s3,.12,4.56.22l3.61.22a30.55,30.55,0,0,1,3.75.44l3.46.52,4,.59c2,.29,3.41.49,4.2.59V618.3h-1.18q0-14-9-21.94t-23-8a27.62,27.62,0,0,0-9.57,1.62,16.79,16.79,0,0,0-6.92,4.42,8.92,8.92,0,0,0-2.51,6q0,5.46,6,8.84T953.83,612.7Z"/><path class="cls-2" d="M848.25,564.3h0a5.32,5.32,0,0,0-3.92,6s1.55,6,13.19,12.59h0l-3-14.4A5.33,5.33,0,0,0,848.25,564.3Z"/><path class="cls-2" d="M864.92,566a5.32,5.32,0,0,0-5.94-3.91h0a5.32,5.32,0,0,0-4.14,6.28h0l3,14.38h0C865.86,572.08,864.92,566,864.92,566Z"/></svg>