<svg id="Camada_1" data-name="Camada 1" xmlns="http://www.w3.org/2000/svg" viewBox="0 0 1080 1080"><defs><style>.cls-1{fill:#e8308a;}.cls-2{fill:#fff;}.cls-2,.cls-3{stroke:#1e1e1c;stroke-miterlimit:10;stroke-width:0.75px;}.cls-3{fill:#1e1e1c;}</style></defs><rect class="cls-1" width="1080" height="1080"/><path class="cls-2" d="M665.21,417.33C546.55,600.9,407.45,734.9,370.34,727.27c-36.11-7.42-53.83-46.93-53.83-159.27s60.09-283.85,53.83-247.53C252.5,1003.26,701,362,665.21,417.33Z"/><path class="cls-3" d="M416.77,629.52C533.06,444.46,670.52,308.67,707.61,315.83c36.19,7,54.42,46.24,55.85,158.58S707,758.93,712.88,722.59C821.91,38.41,381.72,685.29,416.77,629.52Z"/><path class="cls-3" d="M361.68,283.16h0a5.79,5.79,0,0,0-4.22,6.47s1.69,6.5,14.35,13.7h0l-3.22-15.66a5.8,5.8,0,0,0-6.83-4.52Z"/><path class="cls-3" d="M379.8,285a5.78,5.78,0,0,0-6.47-4.22h0a5.78,5.78,0,0,0-4.49,6.82h0l3.23,15.64h0C380.83,291.62,379.8,285,379.8,285Z"/></svg>