<svg id="Camada_1" data-name="Camada 1" xmlns="http://www.w3.org/2000/svg" viewBox="0 0 1080 1080"><defs><style>.cls-1{fill:#e6007e;}.cls-1,.cls-2{stroke:#1d1d1b;stroke-miterlimit:10;stroke-width:0.75px;}.cls-2{fill:#1d1d1b;}</style></defs><path class="cls-1" d="M670.54,417.6C546.81,609,401.68,748.74,363.05,740.8c-37.63-7.75-56.11-48.95-56.11-166.09s62.65-296,56.11-258.11C240.19,1028.57,707.83,359.92,670.54,417.6Z"/><path class="cls-2" d="M411.48,638.87c121.26-193,264.59-334.57,303.31-327.12C752.53,319,771.53,360,773,477.1s-58.84,296.76-52.8,258.81C834,22.42,374.94,697,411.48,638.87Z"/><path class="cls-2" d="M354,277.69h0a6,6,0,0,0-4.44,6.75s1.75,6.76,15,14.28h0l-3.37-16.33A6,6,0,0,0,354,277.69Z"/><path class="cls-2" d="M372.94,279.61a6,6,0,0,0-6.75-4.43h0a6,6,0,0,0-4.69,7.14l3.36,16.31h0C374,286.51,372.94,279.61,372.94,279.61Z"/></svg>